G04 #@! TF.GenerationSoftware,KiCad,Pcbnew,8.0.5*
G04 #@! TF.CreationDate,2024-10-21T19:45:19-04:00*
G04 #@! TF.ProjectId,DRV8871_PCB,44525638-3837-4315-9f50-43422e6b6963,rev?*
G04 #@! TF.SameCoordinates,Original*
G04 #@! TF.FileFunction,Paste,Bot*
G04 #@! TF.FilePolarity,Positive*
%FSLAX46Y46*%
G04 Gerber Fmt 4.6, Leading zero omitted, Abs format (unit mm)*
G04 Created by KiCad (PCBNEW 8.0.5) date 2024-10-21 19:45:19*
%MOMM*%
%LPD*%
G01*
G04 APERTURE LIST*
G04 Aperture macros list*
%AMRoundRect*
0 Rectangle with rounded corners*
0 $1 Rounding radius*
0 $2 $3 $4 $5 $6 $7 $8 $9 X,Y pos of 4 corners*
0 Add a 4 corners polygon primitive as box body*
4,1,4,$2,$3,$4,$5,$6,$7,$8,$9,$2,$3,0*
0 Add four circle primitives for the rounded corners*
1,1,$1+$1,$2,$3*
1,1,$1+$1,$4,$5*
1,1,$1+$1,$6,$7*
1,1,$1+$1,$8,$9*
0 Add four rect primitives between the rounded corners*
20,1,$1+$1,$2,$3,$4,$5,0*
20,1,$1+$1,$4,$5,$6,$7,0*
20,1,$1+$1,$6,$7,$8,$9,0*
20,1,$1+$1,$8,$9,$2,$3,0*%
G04 Aperture macros list end*
%ADD10C,0.100000*%
%ADD11C,0.254000*%
%ADD12C,0.150000*%
%ADD13C,0.300000*%
%ADD14RoundRect,0.250000X0.400000X0.450000X-0.400000X0.450000X-0.400000X-0.450000X0.400000X-0.450000X0*%
G04 APERTURE END LIST*
D10*
X3810000Y-12573000D02*
X3810000Y-17399000D01*
X4318000Y-15240000D02*
X3810000Y-15240000D01*
X3810000Y-2286000D02*
X3810000Y-7239000D01*
X3810000Y-4572000D02*
X4318000Y-4572000D01*
D11*
X19148990Y-16895749D02*
X19148990Y-15879749D01*
X19148990Y-15879749D02*
X18907085Y-15879749D01*
X18907085Y-15879749D02*
X18761942Y-15928130D01*
X18761942Y-15928130D02*
X18665180Y-16024892D01*
X18665180Y-16024892D02*
X18616799Y-16121654D01*
X18616799Y-16121654D02*
X18568418Y-16315178D01*
X18568418Y-16315178D02*
X18568418Y-16460321D01*
X18568418Y-16460321D02*
X18616799Y-16653845D01*
X18616799Y-16653845D02*
X18665180Y-16750607D01*
X18665180Y-16750607D02*
X18761942Y-16847369D01*
X18761942Y-16847369D02*
X18907085Y-16895749D01*
X18907085Y-16895749D02*
X19148990Y-16895749D01*
X17552418Y-16895749D02*
X17891085Y-16411940D01*
X18132990Y-16895749D02*
X18132990Y-15879749D01*
X18132990Y-15879749D02*
X17745942Y-15879749D01*
X17745942Y-15879749D02*
X17649180Y-15928130D01*
X17649180Y-15928130D02*
X17600799Y-15976511D01*
X17600799Y-15976511D02*
X17552418Y-16073273D01*
X17552418Y-16073273D02*
X17552418Y-16218416D01*
X17552418Y-16218416D02*
X17600799Y-16315178D01*
X17600799Y-16315178D02*
X17649180Y-16363559D01*
X17649180Y-16363559D02*
X17745942Y-16411940D01*
X17745942Y-16411940D02*
X18132990Y-16411940D01*
X17262133Y-15879749D02*
X16923466Y-16895749D01*
X16923466Y-16895749D02*
X16584799Y-15879749D01*
X16100990Y-16315178D02*
X16197752Y-16266797D01*
X16197752Y-16266797D02*
X16246133Y-16218416D01*
X16246133Y-16218416D02*
X16294514Y-16121654D01*
X16294514Y-16121654D02*
X16294514Y-16073273D01*
X16294514Y-16073273D02*
X16246133Y-15976511D01*
X16246133Y-15976511D02*
X16197752Y-15928130D01*
X16197752Y-15928130D02*
X16100990Y-15879749D01*
X16100990Y-15879749D02*
X15907466Y-15879749D01*
X15907466Y-15879749D02*
X15810704Y-15928130D01*
X15810704Y-15928130D02*
X15762323Y-15976511D01*
X15762323Y-15976511D02*
X15713942Y-16073273D01*
X15713942Y-16073273D02*
X15713942Y-16121654D01*
X15713942Y-16121654D02*
X15762323Y-16218416D01*
X15762323Y-16218416D02*
X15810704Y-16266797D01*
X15810704Y-16266797D02*
X15907466Y-16315178D01*
X15907466Y-16315178D02*
X16100990Y-16315178D01*
X16100990Y-16315178D02*
X16197752Y-16363559D01*
X16197752Y-16363559D02*
X16246133Y-16411940D01*
X16246133Y-16411940D02*
X16294514Y-16508702D01*
X16294514Y-16508702D02*
X16294514Y-16702226D01*
X16294514Y-16702226D02*
X16246133Y-16798988D01*
X16246133Y-16798988D02*
X16197752Y-16847369D01*
X16197752Y-16847369D02*
X16100990Y-16895749D01*
X16100990Y-16895749D02*
X15907466Y-16895749D01*
X15907466Y-16895749D02*
X15810704Y-16847369D01*
X15810704Y-16847369D02*
X15762323Y-16798988D01*
X15762323Y-16798988D02*
X15713942Y-16702226D01*
X15713942Y-16702226D02*
X15713942Y-16508702D01*
X15713942Y-16508702D02*
X15762323Y-16411940D01*
X15762323Y-16411940D02*
X15810704Y-16363559D01*
X15810704Y-16363559D02*
X15907466Y-16315178D01*
X15133371Y-16315178D02*
X15230133Y-16266797D01*
X15230133Y-16266797D02*
X15278514Y-16218416D01*
X15278514Y-16218416D02*
X15326895Y-16121654D01*
X15326895Y-16121654D02*
X15326895Y-16073273D01*
X15326895Y-16073273D02*
X15278514Y-15976511D01*
X15278514Y-15976511D02*
X15230133Y-15928130D01*
X15230133Y-15928130D02*
X15133371Y-15879749D01*
X15133371Y-15879749D02*
X14939847Y-15879749D01*
X14939847Y-15879749D02*
X14843085Y-15928130D01*
X14843085Y-15928130D02*
X14794704Y-15976511D01*
X14794704Y-15976511D02*
X14746323Y-16073273D01*
X14746323Y-16073273D02*
X14746323Y-16121654D01*
X14746323Y-16121654D02*
X14794704Y-16218416D01*
X14794704Y-16218416D02*
X14843085Y-16266797D01*
X14843085Y-16266797D02*
X14939847Y-16315178D01*
X14939847Y-16315178D02*
X15133371Y-16315178D01*
X15133371Y-16315178D02*
X15230133Y-16363559D01*
X15230133Y-16363559D02*
X15278514Y-16411940D01*
X15278514Y-16411940D02*
X15326895Y-16508702D01*
X15326895Y-16508702D02*
X15326895Y-16702226D01*
X15326895Y-16702226D02*
X15278514Y-16798988D01*
X15278514Y-16798988D02*
X15230133Y-16847369D01*
X15230133Y-16847369D02*
X15133371Y-16895749D01*
X15133371Y-16895749D02*
X14939847Y-16895749D01*
X14939847Y-16895749D02*
X14843085Y-16847369D01*
X14843085Y-16847369D02*
X14794704Y-16798988D01*
X14794704Y-16798988D02*
X14746323Y-16702226D01*
X14746323Y-16702226D02*
X14746323Y-16508702D01*
X14746323Y-16508702D02*
X14794704Y-16411940D01*
X14794704Y-16411940D02*
X14843085Y-16363559D01*
X14843085Y-16363559D02*
X14939847Y-16315178D01*
X14407657Y-15879749D02*
X13730323Y-15879749D01*
X13730323Y-15879749D02*
X14165752Y-16895749D01*
X12811085Y-16895749D02*
X13391657Y-16895749D01*
X13101371Y-16895749D02*
X13101371Y-15879749D01*
X13101371Y-15879749D02*
X13198133Y-16024892D01*
X13198133Y-16024892D02*
X13294895Y-16121654D01*
X13294895Y-16121654D02*
X13391657Y-16170035D01*
X11698324Y-15879749D02*
X11069371Y-15879749D01*
X11069371Y-15879749D02*
X11408038Y-16266797D01*
X11408038Y-16266797D02*
X11262895Y-16266797D01*
X11262895Y-16266797D02*
X11166133Y-16315178D01*
X11166133Y-16315178D02*
X11117752Y-16363559D01*
X11117752Y-16363559D02*
X11069371Y-16460321D01*
X11069371Y-16460321D02*
X11069371Y-16702226D01*
X11069371Y-16702226D02*
X11117752Y-16798988D01*
X11117752Y-16798988D02*
X11166133Y-16847369D01*
X11166133Y-16847369D02*
X11262895Y-16895749D01*
X11262895Y-16895749D02*
X11553181Y-16895749D01*
X11553181Y-16895749D02*
X11649943Y-16847369D01*
X11649943Y-16847369D02*
X11698324Y-16798988D01*
X10633943Y-16798988D02*
X10585562Y-16847369D01*
X10585562Y-16847369D02*
X10633943Y-16895749D01*
X10633943Y-16895749D02*
X10682324Y-16847369D01*
X10682324Y-16847369D02*
X10633943Y-16798988D01*
X10633943Y-16798988D02*
X10633943Y-16895749D01*
X9714704Y-15879749D02*
X9908228Y-15879749D01*
X9908228Y-15879749D02*
X10004990Y-15928130D01*
X10004990Y-15928130D02*
X10053371Y-15976511D01*
X10053371Y-15976511D02*
X10150133Y-16121654D01*
X10150133Y-16121654D02*
X10198514Y-16315178D01*
X10198514Y-16315178D02*
X10198514Y-16702226D01*
X10198514Y-16702226D02*
X10150133Y-16798988D01*
X10150133Y-16798988D02*
X10101752Y-16847369D01*
X10101752Y-16847369D02*
X10004990Y-16895749D01*
X10004990Y-16895749D02*
X9811466Y-16895749D01*
X9811466Y-16895749D02*
X9714704Y-16847369D01*
X9714704Y-16847369D02*
X9666323Y-16798988D01*
X9666323Y-16798988D02*
X9617942Y-16702226D01*
X9617942Y-16702226D02*
X9617942Y-16460321D01*
X9617942Y-16460321D02*
X9666323Y-16363559D01*
X9666323Y-16363559D02*
X9714704Y-16315178D01*
X9714704Y-16315178D02*
X9811466Y-16266797D01*
X9811466Y-16266797D02*
X10004990Y-16266797D01*
X10004990Y-16266797D02*
X10101752Y-16315178D01*
X10101752Y-16315178D02*
X10150133Y-16363559D01*
X10150133Y-16363559D02*
X10198514Y-16460321D01*
X9230895Y-16605464D02*
X8747085Y-16605464D01*
X9327657Y-16895749D02*
X8988990Y-15879749D01*
X8988990Y-15879749D02*
X8650323Y-16895749D01*
X18858704Y-18918500D02*
X18907085Y-18870119D01*
X18907085Y-18870119D02*
X19003847Y-18724976D01*
X19003847Y-18724976D02*
X19052228Y-18628214D01*
X19052228Y-18628214D02*
X19100609Y-18483072D01*
X19100609Y-18483072D02*
X19148990Y-18241167D01*
X19148990Y-18241167D02*
X19148990Y-18047643D01*
X19148990Y-18047643D02*
X19100609Y-17805738D01*
X19100609Y-17805738D02*
X19052228Y-17660595D01*
X19052228Y-17660595D02*
X19003847Y-17563833D01*
X19003847Y-17563833D02*
X18907085Y-17418691D01*
X18907085Y-17418691D02*
X18858704Y-17370310D01*
X18036228Y-18483072D02*
X18132990Y-18531452D01*
X18132990Y-18531452D02*
X18326514Y-18531452D01*
X18326514Y-18531452D02*
X18423276Y-18483072D01*
X18423276Y-18483072D02*
X18471657Y-18434691D01*
X18471657Y-18434691D02*
X18520038Y-18337929D01*
X18520038Y-18337929D02*
X18520038Y-18047643D01*
X18520038Y-18047643D02*
X18471657Y-17950881D01*
X18471657Y-17950881D02*
X18423276Y-17902500D01*
X18423276Y-17902500D02*
X18326514Y-17854119D01*
X18326514Y-17854119D02*
X18132990Y-17854119D01*
X18132990Y-17854119D02*
X18036228Y-17902500D01*
X17697562Y-18918500D02*
X17649181Y-18870119D01*
X17649181Y-18870119D02*
X17552419Y-18724976D01*
X17552419Y-18724976D02*
X17504038Y-18628214D01*
X17504038Y-18628214D02*
X17455657Y-18483072D01*
X17455657Y-18483072D02*
X17407276Y-18241167D01*
X17407276Y-18241167D02*
X17407276Y-18047643D01*
X17407276Y-18047643D02*
X17455657Y-17805738D01*
X17455657Y-17805738D02*
X17504038Y-17660595D01*
X17504038Y-17660595D02*
X17552419Y-17563833D01*
X17552419Y-17563833D02*
X17649181Y-17418691D01*
X17649181Y-17418691D02*
X17697562Y-17370310D01*
X16971848Y-17612214D02*
X16923467Y-17563833D01*
X16923467Y-17563833D02*
X16826705Y-17515452D01*
X16826705Y-17515452D02*
X16584800Y-17515452D01*
X16584800Y-17515452D02*
X16488038Y-17563833D01*
X16488038Y-17563833D02*
X16439657Y-17612214D01*
X16439657Y-17612214D02*
X16391276Y-17708976D01*
X16391276Y-17708976D02*
X16391276Y-17805738D01*
X16391276Y-17805738D02*
X16439657Y-17950881D01*
X16439657Y-17950881D02*
X17020229Y-18531452D01*
X17020229Y-18531452D02*
X16391276Y-18531452D01*
X15762324Y-17515452D02*
X15665562Y-17515452D01*
X15665562Y-17515452D02*
X15568800Y-17563833D01*
X15568800Y-17563833D02*
X15520419Y-17612214D01*
X15520419Y-17612214D02*
X15472038Y-17708976D01*
X15472038Y-17708976D02*
X15423657Y-17902500D01*
X15423657Y-17902500D02*
X15423657Y-18144405D01*
X15423657Y-18144405D02*
X15472038Y-18337929D01*
X15472038Y-18337929D02*
X15520419Y-18434691D01*
X15520419Y-18434691D02*
X15568800Y-18483072D01*
X15568800Y-18483072D02*
X15665562Y-18531452D01*
X15665562Y-18531452D02*
X15762324Y-18531452D01*
X15762324Y-18531452D02*
X15859086Y-18483072D01*
X15859086Y-18483072D02*
X15907467Y-18434691D01*
X15907467Y-18434691D02*
X15955848Y-18337929D01*
X15955848Y-18337929D02*
X16004229Y-18144405D01*
X16004229Y-18144405D02*
X16004229Y-17902500D01*
X16004229Y-17902500D02*
X15955848Y-17708976D01*
X15955848Y-17708976D02*
X15907467Y-17612214D01*
X15907467Y-17612214D02*
X15859086Y-17563833D01*
X15859086Y-17563833D02*
X15762324Y-17515452D01*
X15036610Y-17612214D02*
X14988229Y-17563833D01*
X14988229Y-17563833D02*
X14891467Y-17515452D01*
X14891467Y-17515452D02*
X14649562Y-17515452D01*
X14649562Y-17515452D02*
X14552800Y-17563833D01*
X14552800Y-17563833D02*
X14504419Y-17612214D01*
X14504419Y-17612214D02*
X14456038Y-17708976D01*
X14456038Y-17708976D02*
X14456038Y-17805738D01*
X14456038Y-17805738D02*
X14504419Y-17950881D01*
X14504419Y-17950881D02*
X15084991Y-18531452D01*
X15084991Y-18531452D02*
X14456038Y-18531452D01*
X13585181Y-17854119D02*
X13585181Y-18531452D01*
X13827086Y-17467072D02*
X14068991Y-18192786D01*
X14068991Y-18192786D02*
X13440038Y-18192786D01*
X11698324Y-18531452D02*
X12036991Y-18047643D01*
X12278896Y-18531452D02*
X12278896Y-17515452D01*
X12278896Y-17515452D02*
X11891848Y-17515452D01*
X11891848Y-17515452D02*
X11795086Y-17563833D01*
X11795086Y-17563833D02*
X11746705Y-17612214D01*
X11746705Y-17612214D02*
X11698324Y-17708976D01*
X11698324Y-17708976D02*
X11698324Y-17854119D01*
X11698324Y-17854119D02*
X11746705Y-17950881D01*
X11746705Y-17950881D02*
X11795086Y-17999262D01*
X11795086Y-17999262D02*
X11891848Y-18047643D01*
X11891848Y-18047643D02*
X12278896Y-18047643D01*
X11359658Y-17854119D02*
X11117753Y-18531452D01*
X10875848Y-17854119D02*
X11117753Y-18531452D01*
X11117753Y-18531452D02*
X11214515Y-18773357D01*
X11214515Y-18773357D02*
X11262896Y-18821738D01*
X11262896Y-18821738D02*
X11359658Y-18870119D01*
X10053372Y-18531452D02*
X10053372Y-17999262D01*
X10053372Y-17999262D02*
X10101753Y-17902500D01*
X10101753Y-17902500D02*
X10198515Y-17854119D01*
X10198515Y-17854119D02*
X10392039Y-17854119D01*
X10392039Y-17854119D02*
X10488801Y-17902500D01*
X10053372Y-18483072D02*
X10150134Y-18531452D01*
X10150134Y-18531452D02*
X10392039Y-18531452D01*
X10392039Y-18531452D02*
X10488801Y-18483072D01*
X10488801Y-18483072D02*
X10537182Y-18386310D01*
X10537182Y-18386310D02*
X10537182Y-18289548D01*
X10537182Y-18289548D02*
X10488801Y-18192786D01*
X10488801Y-18192786D02*
X10392039Y-18144405D01*
X10392039Y-18144405D02*
X10150134Y-18144405D01*
X10150134Y-18144405D02*
X10053372Y-18096024D01*
X9569563Y-17854119D02*
X9569563Y-18531452D01*
X9569563Y-17950881D02*
X9521182Y-17902500D01*
X9521182Y-17902500D02*
X9424420Y-17854119D01*
X9424420Y-17854119D02*
X9279277Y-17854119D01*
X9279277Y-17854119D02*
X9182515Y-17902500D01*
X9182515Y-17902500D02*
X9134134Y-17999262D01*
X9134134Y-17999262D02*
X9134134Y-18531452D01*
X7537563Y-17999262D02*
X7392420Y-18047643D01*
X7392420Y-18047643D02*
X7344039Y-18096024D01*
X7344039Y-18096024D02*
X7295658Y-18192786D01*
X7295658Y-18192786D02*
X7295658Y-18337929D01*
X7295658Y-18337929D02*
X7344039Y-18434691D01*
X7344039Y-18434691D02*
X7392420Y-18483072D01*
X7392420Y-18483072D02*
X7489182Y-18531452D01*
X7489182Y-18531452D02*
X7876230Y-18531452D01*
X7876230Y-18531452D02*
X7876230Y-17515452D01*
X7876230Y-17515452D02*
X7537563Y-17515452D01*
X7537563Y-17515452D02*
X7440801Y-17563833D01*
X7440801Y-17563833D02*
X7392420Y-17612214D01*
X7392420Y-17612214D02*
X7344039Y-17708976D01*
X7344039Y-17708976D02*
X7344039Y-17805738D01*
X7344039Y-17805738D02*
X7392420Y-17902500D01*
X7392420Y-17902500D02*
X7440801Y-17950881D01*
X7440801Y-17950881D02*
X7537563Y-17999262D01*
X7537563Y-17999262D02*
X7876230Y-17999262D01*
X6424801Y-18531452D02*
X6424801Y-17999262D01*
X6424801Y-17999262D02*
X6473182Y-17902500D01*
X6473182Y-17902500D02*
X6569944Y-17854119D01*
X6569944Y-17854119D02*
X6763468Y-17854119D01*
X6763468Y-17854119D02*
X6860230Y-17902500D01*
X6424801Y-18483072D02*
X6521563Y-18531452D01*
X6521563Y-18531452D02*
X6763468Y-18531452D01*
X6763468Y-18531452D02*
X6860230Y-18483072D01*
X6860230Y-18483072D02*
X6908611Y-18386310D01*
X6908611Y-18386310D02*
X6908611Y-18289548D01*
X6908611Y-18289548D02*
X6860230Y-18192786D01*
X6860230Y-18192786D02*
X6763468Y-18144405D01*
X6763468Y-18144405D02*
X6521563Y-18144405D01*
X6521563Y-18144405D02*
X6424801Y-18096024D01*
X6086135Y-17854119D02*
X5699087Y-17854119D01*
X5940992Y-17515452D02*
X5940992Y-18386310D01*
X5940992Y-18386310D02*
X5892611Y-18483072D01*
X5892611Y-18483072D02*
X5795849Y-18531452D01*
X5795849Y-18531452D02*
X5699087Y-18531452D01*
X4973373Y-18483072D02*
X5070135Y-18531452D01*
X5070135Y-18531452D02*
X5263659Y-18531452D01*
X5263659Y-18531452D02*
X5360421Y-18483072D01*
X5360421Y-18483072D02*
X5408802Y-18386310D01*
X5408802Y-18386310D02*
X5408802Y-17999262D01*
X5408802Y-17999262D02*
X5360421Y-17902500D01*
X5360421Y-17902500D02*
X5263659Y-17854119D01*
X5263659Y-17854119D02*
X5070135Y-17854119D01*
X5070135Y-17854119D02*
X4973373Y-17902500D01*
X4973373Y-17902500D02*
X4924992Y-17999262D01*
X4924992Y-17999262D02*
X4924992Y-18096024D01*
X4924992Y-18096024D02*
X5408802Y-18192786D01*
X4537945Y-18483072D02*
X4441183Y-18531452D01*
X4441183Y-18531452D02*
X4247659Y-18531452D01*
X4247659Y-18531452D02*
X4150897Y-18483072D01*
X4150897Y-18483072D02*
X4102516Y-18386310D01*
X4102516Y-18386310D02*
X4102516Y-18337929D01*
X4102516Y-18337929D02*
X4150897Y-18241167D01*
X4150897Y-18241167D02*
X4247659Y-18192786D01*
X4247659Y-18192786D02*
X4392802Y-18192786D01*
X4392802Y-18192786D02*
X4489564Y-18144405D01*
X4489564Y-18144405D02*
X4537945Y-18047643D01*
X4537945Y-18047643D02*
X4537945Y-17999262D01*
X4537945Y-17999262D02*
X4489564Y-17902500D01*
X4489564Y-17902500D02*
X4392802Y-17854119D01*
X4392802Y-17854119D02*
X4247659Y-17854119D01*
X4247659Y-17854119D02*
X4150897Y-17902500D01*
D12*
X5759220Y-11553819D02*
X5759220Y-10553819D01*
X5283030Y-11553819D02*
X5283030Y-10553819D01*
X5283030Y-10553819D02*
X4711602Y-11553819D01*
X4711602Y-11553819D02*
X4711602Y-10553819D01*
X3711602Y-11553819D02*
X4283030Y-11553819D01*
X3997316Y-11553819D02*
X3997316Y-10553819D01*
X3997316Y-10553819D02*
X4092554Y-10696676D01*
X4092554Y-10696676D02*
X4187792Y-10791914D01*
X4187792Y-10791914D02*
X4283030Y-10839533D01*
D13*
G36*
X7468264Y-16245318D02*
G01*
X4196133Y-16245318D01*
X4196133Y-15329136D01*
X4362800Y-15329136D01*
X4362800Y-15387664D01*
X4385198Y-15441736D01*
X4426582Y-15483120D01*
X4480654Y-15505518D01*
X4509918Y-15508400D01*
X4931346Y-15508400D01*
X4931346Y-15929828D01*
X4934228Y-15959092D01*
X4956626Y-16013164D01*
X4998010Y-16054548D01*
X5052082Y-16076946D01*
X5110610Y-16076946D01*
X5164682Y-16054548D01*
X5206066Y-16013164D01*
X5228464Y-15959092D01*
X5231346Y-15929828D01*
X5231346Y-15508400D01*
X5652775Y-15508400D01*
X5682039Y-15505518D01*
X5736111Y-15483120D01*
X5777495Y-15441736D01*
X5799893Y-15387664D01*
X5799893Y-15329136D01*
X5777495Y-15275064D01*
X5736111Y-15233680D01*
X5682039Y-15211282D01*
X5652775Y-15208400D01*
X5231346Y-15208400D01*
X5231346Y-14786971D01*
X5228464Y-14757707D01*
X5206066Y-14703635D01*
X5164682Y-14662251D01*
X5110610Y-14639853D01*
X5052082Y-14639853D01*
X4998010Y-14662251D01*
X4956626Y-14703635D01*
X4934228Y-14757707D01*
X4931346Y-14786971D01*
X4931346Y-15208400D01*
X4509918Y-15208400D01*
X4480654Y-15211282D01*
X4426582Y-15233680D01*
X4385198Y-15275064D01*
X4362800Y-15329136D01*
X4196133Y-15329136D01*
X4196133Y-14448589D01*
X6003952Y-14448589D01*
X6010472Y-14477262D01*
X6510472Y-15977262D01*
X6522460Y-16004113D01*
X6529482Y-16012210D01*
X6534275Y-16021795D01*
X6548481Y-16034116D01*
X6560807Y-16048328D01*
X6570394Y-16053121D01*
X6578489Y-16060142D01*
X6596331Y-16066089D01*
X6613155Y-16074501D01*
X6623845Y-16075260D01*
X6634013Y-16078650D01*
X6652769Y-16077317D01*
X6671535Y-16078651D01*
X6681705Y-16075260D01*
X6692394Y-16074501D01*
X6709215Y-16066090D01*
X6727059Y-16060142D01*
X6735155Y-16053119D01*
X6744741Y-16048327D01*
X6757064Y-16034118D01*
X6771273Y-16021795D01*
X6776065Y-16012209D01*
X6783088Y-16004113D01*
X6795076Y-15977262D01*
X7295077Y-14477262D01*
X7301597Y-14448588D01*
X7297447Y-14390208D01*
X7271273Y-14337861D01*
X7227059Y-14299514D01*
X7171535Y-14281005D01*
X7113155Y-14285155D01*
X7060807Y-14311328D01*
X7022460Y-14355543D01*
X7010472Y-14382394D01*
X6652774Y-15455486D01*
X6295076Y-14382394D01*
X6283088Y-14355543D01*
X6244741Y-14311329D01*
X6192394Y-14285155D01*
X6134013Y-14281006D01*
X6078489Y-14299514D01*
X6034275Y-14337861D01*
X6008101Y-14390208D01*
X6003952Y-14448589D01*
X4196133Y-14448589D01*
X4196133Y-14114338D01*
X7468264Y-14114338D01*
X7468264Y-16245318D01*
G37*
G36*
X5241060Y-5238828D02*
G01*
X5058260Y-5238828D01*
X4900657Y-5186294D01*
X4800052Y-5085688D01*
X4746871Y-4979328D01*
X4683917Y-4727507D01*
X4683917Y-4550148D01*
X4746871Y-4298327D01*
X4800052Y-4191967D01*
X4900658Y-4091361D01*
X5058260Y-4038828D01*
X5241060Y-4038828D01*
X5241060Y-5238828D01*
G37*
G36*
X8850584Y-5705495D02*
G01*
X4217250Y-5705495D01*
X4217250Y-4531685D01*
X4383917Y-4531685D01*
X4383917Y-4745971D01*
X4384419Y-4751074D01*
X4384094Y-4753262D01*
X4385713Y-4764212D01*
X4386799Y-4775235D01*
X4387646Y-4777279D01*
X4388396Y-4782351D01*
X4459824Y-5068065D01*
X4460595Y-5070223D01*
X4460672Y-5071304D01*
X4465330Y-5083478D01*
X4469717Y-5095756D01*
X4470361Y-5096626D01*
X4471181Y-5098767D01*
X4542610Y-5241624D01*
X4550537Y-5254217D01*
X4552053Y-5257877D01*
X4555434Y-5261996D01*
X4558275Y-5266510D01*
X4561268Y-5269106D01*
X4570708Y-5280608D01*
X4713565Y-5423466D01*
X4736295Y-5442121D01*
X4741274Y-5444183D01*
X4745346Y-5447715D01*
X4772197Y-5459703D01*
X4986483Y-5531131D01*
X5000995Y-5534430D01*
X5004653Y-5535946D01*
X5009955Y-5536468D01*
X5015157Y-5537651D01*
X5019111Y-5537369D01*
X5033917Y-5538828D01*
X5391060Y-5538828D01*
X5420324Y-5535946D01*
X5474396Y-5513548D01*
X5515780Y-5472164D01*
X5538178Y-5418092D01*
X5541060Y-5388828D01*
X5541060Y-3888828D01*
X5955346Y-3888828D01*
X5955346Y-5388828D01*
X5956087Y-5396353D01*
X5955712Y-5399305D01*
X5956754Y-5403125D01*
X5958228Y-5418092D01*
X5965863Y-5436524D01*
X5971112Y-5455769D01*
X5976966Y-5463328D01*
X5980626Y-5472164D01*
X5994733Y-5486271D01*
X6006947Y-5502043D01*
X6015249Y-5506787D01*
X6022010Y-5513548D01*
X6040440Y-5521182D01*
X6057763Y-5531081D01*
X6067248Y-5532286D01*
X6076082Y-5535946D01*
X6096032Y-5535946D01*
X6115823Y-5538462D01*
X6125048Y-5535946D01*
X6134610Y-5535946D01*
X6153042Y-5528310D01*
X6172287Y-5523062D01*
X6179846Y-5517207D01*
X6188682Y-5513548D01*
X6202789Y-5499440D01*
X6218561Y-5487227D01*
X6227266Y-5474963D01*
X6230066Y-5472164D01*
X6231204Y-5469416D01*
X6235582Y-5463249D01*
X6812489Y-4453663D01*
X6812489Y-5388828D01*
X6815371Y-5418092D01*
X6837769Y-5472164D01*
X6879153Y-5513548D01*
X6933225Y-5535946D01*
X6991753Y-5535946D01*
X7045825Y-5513548D01*
X7087209Y-5472164D01*
X7109607Y-5418092D01*
X7112489Y-5388828D01*
X7112489Y-4745971D01*
X7455346Y-4745971D01*
X7455346Y-5245971D01*
X7458228Y-5275235D01*
X7480626Y-5329307D01*
X7480629Y-5329310D01*
X7499279Y-5352036D01*
X7570707Y-5423465D01*
X7593438Y-5442120D01*
X7598414Y-5444181D01*
X7602489Y-5447715D01*
X7629340Y-5459703D01*
X7843626Y-5531131D01*
X7858138Y-5534430D01*
X7861796Y-5535946D01*
X7867098Y-5536468D01*
X7872300Y-5537651D01*
X7876254Y-5537369D01*
X7891060Y-5538828D01*
X8033917Y-5538828D01*
X8048722Y-5537369D01*
X8052677Y-5537651D01*
X8057878Y-5536468D01*
X8063181Y-5535946D01*
X8066838Y-5534430D01*
X8081351Y-5531131D01*
X8295637Y-5459703D01*
X8322488Y-5447715D01*
X8326559Y-5444183D01*
X8331539Y-5442121D01*
X8354269Y-5423466D01*
X8497126Y-5280608D01*
X8506564Y-5269106D01*
X8509559Y-5266510D01*
X8512399Y-5261996D01*
X8515781Y-5257877D01*
X8517296Y-5254217D01*
X8525224Y-5241624D01*
X8596653Y-5098768D01*
X8597472Y-5096625D01*
X8598117Y-5095756D01*
X8602501Y-5083484D01*
X8607162Y-5071304D01*
X8607238Y-5070223D01*
X8608010Y-5068065D01*
X8679438Y-4782351D01*
X8680187Y-4777279D01*
X8681035Y-4775235D01*
X8682120Y-4764212D01*
X8683740Y-4753262D01*
X8683414Y-4751074D01*
X8683917Y-4745971D01*
X8683917Y-4531685D01*
X8683414Y-4526581D01*
X8683740Y-4524394D01*
X8682120Y-4513443D01*
X8681035Y-4502421D01*
X8680187Y-4500376D01*
X8679438Y-4495305D01*
X8608010Y-4209591D01*
X8607238Y-4207432D01*
X8607162Y-4206352D01*
X8602501Y-4194171D01*
X8598117Y-4181900D01*
X8597472Y-4181030D01*
X8596653Y-4178888D01*
X8525224Y-4036032D01*
X8517297Y-4023440D01*
X8515781Y-4019778D01*
X8512397Y-4015655D01*
X8509559Y-4011146D01*
X8506566Y-4008550D01*
X8497126Y-3997048D01*
X8354269Y-3854191D01*
X8331538Y-3835536D01*
X8326558Y-3833473D01*
X8322488Y-3829943D01*
X8295637Y-3817954D01*
X8081351Y-3746526D01*
X8066843Y-3743227D01*
X8063181Y-3741710D01*
X8057872Y-3741187D01*
X8052678Y-3740006D01*
X8048728Y-3740286D01*
X8033917Y-3738828D01*
X7819632Y-3738828D01*
X7790368Y-3741710D01*
X7785390Y-3743771D01*
X7780013Y-3744154D01*
X7752550Y-3754664D01*
X7609692Y-3826093D01*
X7584806Y-3841758D01*
X7546460Y-3885973D01*
X7527952Y-3941495D01*
X7532100Y-3999876D01*
X7558275Y-4052225D01*
X7602490Y-4090571D01*
X7658012Y-4109079D01*
X7716393Y-4104931D01*
X7743856Y-4094421D01*
X7855042Y-4038828D01*
X8009577Y-4038828D01*
X8167175Y-4091361D01*
X8267782Y-4191968D01*
X8320961Y-4298327D01*
X8383917Y-4550148D01*
X8383917Y-4727507D01*
X8320961Y-4979328D01*
X8267782Y-5085688D01*
X8167176Y-5186294D01*
X8009574Y-5238828D01*
X7915403Y-5238828D01*
X7757800Y-5186294D01*
X7755346Y-5183839D01*
X7755346Y-4895971D01*
X7891060Y-4895971D01*
X7920324Y-4893089D01*
X7974396Y-4870691D01*
X8015780Y-4829307D01*
X8038178Y-4775235D01*
X8038178Y-4716707D01*
X8015780Y-4662635D01*
X7974396Y-4621251D01*
X7920324Y-4598853D01*
X7891060Y-4595971D01*
X7605346Y-4595971D01*
X7576082Y-4598853D01*
X7522010Y-4621251D01*
X7480626Y-4662635D01*
X7458228Y-4716707D01*
X7455346Y-4745971D01*
X7112489Y-4745971D01*
X7112489Y-3888828D01*
X7111747Y-3881301D01*
X7112123Y-3878350D01*
X7111080Y-3874528D01*
X7109607Y-3859564D01*
X7101971Y-3841131D01*
X7096723Y-3821887D01*
X7090868Y-3814327D01*
X7087209Y-3805492D01*
X7073101Y-3791384D01*
X7060888Y-3775613D01*
X7052585Y-3770868D01*
X7045825Y-3764108D01*
X7027394Y-3756473D01*
X7010072Y-3746575D01*
X7000586Y-3745369D01*
X6991753Y-3741710D01*
X6971803Y-3741710D01*
X6952012Y-3739194D01*
X6942787Y-3741710D01*
X6933225Y-3741710D01*
X6914796Y-3749343D01*
X6895548Y-3754593D01*
X6887986Y-3760449D01*
X6879153Y-3764108D01*
X6865047Y-3778213D01*
X6849274Y-3790429D01*
X6840568Y-3802692D01*
X6837769Y-3805492D01*
X6836630Y-3808239D01*
X6832253Y-3814407D01*
X6255346Y-4823994D01*
X6255346Y-3888828D01*
X6252464Y-3859564D01*
X6230066Y-3805492D01*
X6188682Y-3764108D01*
X6134610Y-3741710D01*
X6076082Y-3741710D01*
X6022010Y-3764108D01*
X5980626Y-3805492D01*
X5958228Y-3859564D01*
X5955346Y-3888828D01*
X5541060Y-3888828D01*
X5538178Y-3859564D01*
X5515780Y-3805492D01*
X5474396Y-3764108D01*
X5420324Y-3741710D01*
X5391060Y-3738828D01*
X5033917Y-3738828D01*
X5019105Y-3740286D01*
X5015156Y-3740006D01*
X5009961Y-3741187D01*
X5004653Y-3741710D01*
X5000991Y-3743226D01*
X4986482Y-3746526D01*
X4772197Y-3817955D01*
X4745346Y-3829943D01*
X4741276Y-3833472D01*
X4736295Y-3835536D01*
X4713565Y-3854191D01*
X4570708Y-3997048D01*
X4561268Y-4008549D01*
X4558275Y-4011146D01*
X4555434Y-4015659D01*
X4552053Y-4019779D01*
X4550537Y-4023438D01*
X4542610Y-4036032D01*
X4471181Y-4178889D01*
X4470361Y-4181029D01*
X4469717Y-4181900D01*
X4465330Y-4194177D01*
X4460672Y-4206352D01*
X4460595Y-4207432D01*
X4459824Y-4209591D01*
X4388396Y-4495305D01*
X4387646Y-4500376D01*
X4386799Y-4502421D01*
X4385713Y-4513443D01*
X4384094Y-4524394D01*
X4384419Y-4526581D01*
X4383917Y-4531685D01*
X4217250Y-4531685D01*
X4217250Y-3572161D01*
X8850584Y-3572161D01*
X8850584Y-5705495D01*
G37*
D12*
X5886220Y-9140819D02*
X5886220Y-8140819D01*
X5410030Y-9140819D02*
X5410030Y-8140819D01*
X5410030Y-8140819D02*
X4838602Y-9140819D01*
X4838602Y-9140819D02*
X4838602Y-8140819D01*
X4410030Y-8236057D02*
X4362411Y-8188438D01*
X4362411Y-8188438D02*
X4267173Y-8140819D01*
X4267173Y-8140819D02*
X4029078Y-8140819D01*
X4029078Y-8140819D02*
X3933840Y-8188438D01*
X3933840Y-8188438D02*
X3886221Y-8236057D01*
X3886221Y-8236057D02*
X3838602Y-8331295D01*
X3838602Y-8331295D02*
X3838602Y-8426533D01*
X3838602Y-8426533D02*
X3886221Y-8569390D01*
X3886221Y-8569390D02*
X4457649Y-9140819D01*
X4457649Y-9140819D02*
X3838602Y-9140819D01*
D14*
X24183000Y-2413000D03*
X21283000Y-2413000D03*
X24310000Y-16002000D03*
X21410000Y-16002000D03*
M02*
