%TF.GenerationSoftware,KiCad,Pcbnew,8.0.5*%
%TF.CreationDate,2024-10-21T19:45:32-04:00*%
%TF.ProjectId,DRV8871_PCB,44525638-3837-4315-9f50-43422e6b6963,rev?*%
%TF.SameCoordinates,Original*%
%TF.FileFunction,Drillmap*%
%TF.FilePolarity,Positive*%
%FSLAX45Y45*%
G04 Gerber Fmt 4.5, Leading zero omitted, Abs format (unit mm)*
G04 Created by KiCad (PCBNEW 8.0.5) date 2024-10-21 19:45:32*
%MOMM*%
%LPD*%
G01*
G04 APERTURE LIST*
%ADD10C,0.050000*%
%ADD11C,0.200000*%
%ADD12C,0.100000*%
G04 APERTURE END LIST*
D10*
X2997200Y-1752600D02*
G75*
G02*
X2743200Y-2006600I-254000J0D01*
G01*
X0Y-1752600D02*
X0Y-254000D01*
X254000Y-2006600D02*
G75*
G02*
X0Y-1752600I0J254000D01*
G01*
X0Y-254000D02*
G75*
G02*
X254000Y0I254000J0D01*
G01*
X254000Y0D02*
X2743200Y0D01*
X2997200Y-254000D02*
X2997200Y-1752600D01*
X2743200Y-2006600D02*
X254000Y-2006600D01*
X2743200Y0D02*
G75*
G02*
X2997200Y-254000I0J-254000D01*
G01*
D11*
D12*
X1204200Y-366000D02*
X1234200Y-396000D01*
X1234200Y-366000D02*
X1204200Y-396000D01*
X1204200Y-480300D02*
X1234200Y-510300D01*
X1234200Y-480300D02*
X1204200Y-510300D01*
X1318500Y-366000D02*
X1348500Y-396000D01*
X1348500Y-366000D02*
X1318500Y-396000D01*
X1318500Y-480300D02*
X1348500Y-510300D01*
X1348500Y-480300D02*
X1318500Y-510300D01*
X1407400Y-1382000D02*
X1437400Y-1412000D01*
X1437400Y-1382000D02*
X1407400Y-1412000D01*
X1407400Y-1496300D02*
X1437400Y-1526300D01*
X1437400Y-1496300D02*
X1407400Y-1526300D01*
X1420100Y-366000D02*
X1450100Y-396000D01*
X1450100Y-366000D02*
X1420100Y-396000D01*
X1420100Y-480300D02*
X1450100Y-510300D01*
X1450100Y-480300D02*
X1420100Y-510300D01*
X1509000Y-1382000D02*
X1539000Y-1412000D01*
X1539000Y-1382000D02*
X1509000Y-1412000D01*
X1509000Y-1496300D02*
X1539000Y-1526300D01*
X1539000Y-1496300D02*
X1509000Y-1526300D01*
X1521700Y-366000D02*
X1551700Y-396000D01*
X1551700Y-366000D02*
X1521700Y-396000D01*
X1521700Y-480300D02*
X1551700Y-510300D01*
X1551700Y-480300D02*
X1521700Y-510300D01*
X1940800Y-924800D02*
X1970800Y-954800D01*
X1970800Y-924800D02*
X1940800Y-954800D01*
X2042400Y-1001000D02*
X2072400Y-1031000D01*
X2072400Y-1001000D02*
X2042400Y-1031000D01*
X2105900Y-1305800D02*
X2135900Y-1335800D01*
X2135900Y-1305800D02*
X2105900Y-1335800D01*
X2131300Y-924800D02*
X2161300Y-954800D01*
X2161300Y-924800D02*
X2131300Y-954800D01*
X2220200Y-1001000D02*
X2250200Y-1031000D01*
X2250200Y-1001000D02*
X2220200Y-1031000D01*
X2258300Y-404100D02*
X2288300Y-434100D01*
X2288300Y-404100D02*
X2258300Y-434100D01*
X2309100Y-924800D02*
X2339100Y-954800D01*
X2339100Y-924800D02*
X2309100Y-954800D01*
X2398000Y-1001000D02*
X2428000Y-1031000D01*
X2428000Y-1001000D02*
X2398000Y-1031000D01*
X2461500Y-912100D02*
X2491500Y-942100D01*
X2491500Y-912100D02*
X2461500Y-942100D01*
X2588500Y-1851900D02*
X2618500Y-1881900D01*
X2618500Y-1851900D02*
X2588500Y-1881900D01*
X2664700Y-1737600D02*
X2694700Y-1767600D01*
X2694700Y-1737600D02*
X2664700Y-1767600D01*
X2766300Y-1851900D02*
X2796300Y-1881900D01*
X2796300Y-1851900D02*
X2766300Y-1881900D01*
X2867900Y-1737600D02*
X2897900Y-1767600D01*
X2897900Y-1737600D02*
X2867900Y-1767600D01*
X1416600Y-898700D02*
G75*
G02*
X1383600Y-898700I-16500J0D01*
G01*
X1383600Y-898700D02*
G75*
G02*
X1416600Y-898700I16500J0D01*
G01*
X1416600Y-1028700D02*
G75*
G02*
X1383600Y-1028700I-16500J0D01*
G01*
X1383600Y-1028700D02*
G75*
G02*
X1416600Y-1028700I16500J0D01*
G01*
X1416600Y-1158700D02*
G75*
G02*
X1383600Y-1158700I-16500J0D01*
G01*
X1383600Y-1158700D02*
G75*
G02*
X1416600Y-1158700I16500J0D01*
G01*
X1546600Y-898700D02*
G75*
G02*
X1513600Y-898700I-16500J0D01*
G01*
X1513600Y-898700D02*
G75*
G02*
X1546600Y-898700I16500J0D01*
G01*
X1546600Y-1028700D02*
G75*
G02*
X1513600Y-1028700I-16500J0D01*
G01*
X1513600Y-1028700D02*
G75*
G02*
X1546600Y-1028700I16500J0D01*
G01*
X1546600Y-1158700D02*
G75*
G02*
X1513600Y-1158700I-16500J0D01*
G01*
X1513600Y-1158700D02*
G75*
G02*
X1546600Y-1158700I16500J0D01*
G01*
X203200Y-305600D02*
X203200Y-405600D01*
X153200Y-355600D02*
X253200Y-355600D01*
X203200Y-559600D02*
X203200Y-659600D01*
X153200Y-609600D02*
X253200Y-609600D01*
X203200Y-813600D02*
X203200Y-913600D01*
X153200Y-863600D02*
X253200Y-863600D01*
X203200Y-1067600D02*
X203200Y-1167600D01*
X153200Y-1117600D02*
X253200Y-1117600D01*
X203200Y-1321600D02*
X203200Y-1421600D01*
X153200Y-1371600D02*
X253200Y-1371600D01*
X203200Y-1575600D02*
X203200Y-1675600D01*
X153200Y-1625600D02*
X253200Y-1625600D01*
X2743200Y-533200D02*
X2743200Y-633200D01*
X2693200Y-583200D02*
X2793200Y-583200D01*
X2743200Y-787200D02*
X2743200Y-887200D01*
X2693200Y-837200D02*
X2793200Y-837200D01*
X2743200Y-1041200D02*
X2743200Y-1141200D01*
X2693200Y-1091200D02*
X2793200Y-1091200D01*
X2743200Y-1295200D02*
X2743200Y-1395200D01*
X2693200Y-1345200D02*
X2793200Y-1345200D01*
D11*
X258277Y-2320584D02*
X258277Y-2120584D01*
X258277Y-2120584D02*
X305896Y-2120584D01*
X305896Y-2120584D02*
X334467Y-2130108D01*
X334467Y-2130108D02*
X353515Y-2149155D01*
X353515Y-2149155D02*
X363039Y-2168203D01*
X363039Y-2168203D02*
X372562Y-2206298D01*
X372562Y-2206298D02*
X372562Y-2234870D01*
X372562Y-2234870D02*
X363039Y-2272965D01*
X363039Y-2272965D02*
X353515Y-2292012D01*
X353515Y-2292012D02*
X334467Y-2311060D01*
X334467Y-2311060D02*
X305896Y-2320584D01*
X305896Y-2320584D02*
X258277Y-2320584D01*
X458277Y-2320584D02*
X458277Y-2187250D01*
X458277Y-2225346D02*
X467801Y-2206298D01*
X467801Y-2206298D02*
X477324Y-2196774D01*
X477324Y-2196774D02*
X496372Y-2187250D01*
X496372Y-2187250D02*
X515420Y-2187250D01*
X582086Y-2320584D02*
X582086Y-2187250D01*
X582086Y-2120584D02*
X572563Y-2130108D01*
X572563Y-2130108D02*
X582086Y-2139631D01*
X582086Y-2139631D02*
X591610Y-2130108D01*
X591610Y-2130108D02*
X582086Y-2120584D01*
X582086Y-2120584D02*
X582086Y-2139631D01*
X705896Y-2320584D02*
X686848Y-2311060D01*
X686848Y-2311060D02*
X677324Y-2292012D01*
X677324Y-2292012D02*
X677324Y-2120584D01*
X810658Y-2320584D02*
X791610Y-2311060D01*
X791610Y-2311060D02*
X782086Y-2292012D01*
X782086Y-2292012D02*
X782086Y-2120584D01*
X1039229Y-2320584D02*
X1039229Y-2120584D01*
X1039229Y-2120584D02*
X1105896Y-2263441D01*
X1105896Y-2263441D02*
X1172563Y-2120584D01*
X1172563Y-2120584D02*
X1172563Y-2320584D01*
X1353515Y-2320584D02*
X1353515Y-2215822D01*
X1353515Y-2215822D02*
X1343991Y-2196774D01*
X1343991Y-2196774D02*
X1324944Y-2187250D01*
X1324944Y-2187250D02*
X1286848Y-2187250D01*
X1286848Y-2187250D02*
X1267801Y-2196774D01*
X1353515Y-2311060D02*
X1334467Y-2320584D01*
X1334467Y-2320584D02*
X1286848Y-2320584D01*
X1286848Y-2320584D02*
X1267801Y-2311060D01*
X1267801Y-2311060D02*
X1258277Y-2292012D01*
X1258277Y-2292012D02*
X1258277Y-2272965D01*
X1258277Y-2272965D02*
X1267801Y-2253917D01*
X1267801Y-2253917D02*
X1286848Y-2244393D01*
X1286848Y-2244393D02*
X1334467Y-2244393D01*
X1334467Y-2244393D02*
X1353515Y-2234870D01*
X1448753Y-2187250D02*
X1448753Y-2387250D01*
X1448753Y-2196774D02*
X1467801Y-2187250D01*
X1467801Y-2187250D02*
X1505896Y-2187250D01*
X1505896Y-2187250D02*
X1524943Y-2196774D01*
X1524943Y-2196774D02*
X1534467Y-2206298D01*
X1534467Y-2206298D02*
X1543991Y-2225346D01*
X1543991Y-2225346D02*
X1543991Y-2282489D01*
X1543991Y-2282489D02*
X1534467Y-2301536D01*
X1534467Y-2301536D02*
X1524943Y-2311060D01*
X1524943Y-2311060D02*
X1505896Y-2320584D01*
X1505896Y-2320584D02*
X1467801Y-2320584D01*
X1467801Y-2320584D02*
X1448753Y-2311060D01*
X1629705Y-2301536D02*
X1639229Y-2311060D01*
X1639229Y-2311060D02*
X1629705Y-2320584D01*
X1629705Y-2320584D02*
X1620182Y-2311060D01*
X1620182Y-2311060D02*
X1629705Y-2301536D01*
X1629705Y-2301536D02*
X1629705Y-2320584D01*
X1629705Y-2196774D02*
X1639229Y-2206298D01*
X1639229Y-2206298D02*
X1629705Y-2215822D01*
X1629705Y-2215822D02*
X1620182Y-2206298D01*
X1620182Y-2206298D02*
X1629705Y-2196774D01*
X1629705Y-2196774D02*
X1629705Y-2215822D01*
D12*
X-32500Y-2634100D02*
X-2500Y-2664100D01*
X-2500Y-2634100D02*
X-32500Y-2664100D01*
D11*
X296372Y-2540584D02*
X315420Y-2540584D01*
X315420Y-2540584D02*
X334467Y-2550108D01*
X334467Y-2550108D02*
X343991Y-2559631D01*
X343991Y-2559631D02*
X353515Y-2578679D01*
X353515Y-2578679D02*
X363039Y-2616774D01*
X363039Y-2616774D02*
X363039Y-2664393D01*
X363039Y-2664393D02*
X353515Y-2702489D01*
X353515Y-2702489D02*
X343991Y-2721536D01*
X343991Y-2721536D02*
X334467Y-2731060D01*
X334467Y-2731060D02*
X315420Y-2740584D01*
X315420Y-2740584D02*
X296372Y-2740584D01*
X296372Y-2740584D02*
X277324Y-2731060D01*
X277324Y-2731060D02*
X267801Y-2721536D01*
X267801Y-2721536D02*
X258277Y-2702489D01*
X258277Y-2702489D02*
X248753Y-2664393D01*
X248753Y-2664393D02*
X248753Y-2616774D01*
X248753Y-2616774D02*
X258277Y-2578679D01*
X258277Y-2578679D02*
X267801Y-2559631D01*
X267801Y-2559631D02*
X277324Y-2550108D01*
X277324Y-2550108D02*
X296372Y-2540584D01*
X448753Y-2721536D02*
X458277Y-2731060D01*
X458277Y-2731060D02*
X448753Y-2740584D01*
X448753Y-2740584D02*
X439229Y-2731060D01*
X439229Y-2731060D02*
X448753Y-2721536D01*
X448753Y-2721536D02*
X448753Y-2740584D01*
X524944Y-2540584D02*
X648753Y-2540584D01*
X648753Y-2540584D02*
X582086Y-2616774D01*
X582086Y-2616774D02*
X610658Y-2616774D01*
X610658Y-2616774D02*
X629705Y-2626298D01*
X629705Y-2626298D02*
X639229Y-2635822D01*
X639229Y-2635822D02*
X648753Y-2654870D01*
X648753Y-2654870D02*
X648753Y-2702489D01*
X648753Y-2702489D02*
X639229Y-2721536D01*
X639229Y-2721536D02*
X629705Y-2731060D01*
X629705Y-2731060D02*
X610658Y-2740584D01*
X610658Y-2740584D02*
X553515Y-2740584D01*
X553515Y-2740584D02*
X534467Y-2731060D01*
X534467Y-2731060D02*
X524944Y-2721536D01*
X772562Y-2540584D02*
X791610Y-2540584D01*
X791610Y-2540584D02*
X810658Y-2550108D01*
X810658Y-2550108D02*
X820182Y-2559631D01*
X820182Y-2559631D02*
X829705Y-2578679D01*
X829705Y-2578679D02*
X839229Y-2616774D01*
X839229Y-2616774D02*
X839229Y-2664393D01*
X839229Y-2664393D02*
X829705Y-2702489D01*
X829705Y-2702489D02*
X820182Y-2721536D01*
X820182Y-2721536D02*
X810658Y-2731060D01*
X810658Y-2731060D02*
X791610Y-2740584D01*
X791610Y-2740584D02*
X772562Y-2740584D01*
X772562Y-2740584D02*
X753515Y-2731060D01*
X753515Y-2731060D02*
X743991Y-2721536D01*
X743991Y-2721536D02*
X734467Y-2702489D01*
X734467Y-2702489D02*
X724943Y-2664393D01*
X724943Y-2664393D02*
X724943Y-2616774D01*
X724943Y-2616774D02*
X734467Y-2578679D01*
X734467Y-2578679D02*
X743991Y-2559631D01*
X743991Y-2559631D02*
X753515Y-2550108D01*
X753515Y-2550108D02*
X772562Y-2540584D01*
X963039Y-2540584D02*
X982086Y-2540584D01*
X982086Y-2540584D02*
X1001134Y-2550108D01*
X1001134Y-2550108D02*
X1010658Y-2559631D01*
X1010658Y-2559631D02*
X1020182Y-2578679D01*
X1020182Y-2578679D02*
X1029705Y-2616774D01*
X1029705Y-2616774D02*
X1029705Y-2664393D01*
X1029705Y-2664393D02*
X1020182Y-2702489D01*
X1020182Y-2702489D02*
X1010658Y-2721536D01*
X1010658Y-2721536D02*
X1001134Y-2731060D01*
X1001134Y-2731060D02*
X982086Y-2740584D01*
X982086Y-2740584D02*
X963039Y-2740584D01*
X963039Y-2740584D02*
X943991Y-2731060D01*
X943991Y-2731060D02*
X934467Y-2721536D01*
X934467Y-2721536D02*
X924943Y-2702489D01*
X924943Y-2702489D02*
X915420Y-2664393D01*
X915420Y-2664393D02*
X915420Y-2616774D01*
X915420Y-2616774D02*
X924943Y-2578679D01*
X924943Y-2578679D02*
X934467Y-2559631D01*
X934467Y-2559631D02*
X943991Y-2550108D01*
X943991Y-2550108D02*
X963039Y-2540584D01*
X1115420Y-2740584D02*
X1115420Y-2607250D01*
X1115420Y-2626298D02*
X1124944Y-2616774D01*
X1124944Y-2616774D02*
X1143991Y-2607250D01*
X1143991Y-2607250D02*
X1172563Y-2607250D01*
X1172563Y-2607250D02*
X1191610Y-2616774D01*
X1191610Y-2616774D02*
X1201134Y-2635822D01*
X1201134Y-2635822D02*
X1201134Y-2740584D01*
X1201134Y-2635822D02*
X1210658Y-2616774D01*
X1210658Y-2616774D02*
X1229705Y-2607250D01*
X1229705Y-2607250D02*
X1258277Y-2607250D01*
X1258277Y-2607250D02*
X1277325Y-2616774D01*
X1277325Y-2616774D02*
X1286848Y-2635822D01*
X1286848Y-2635822D02*
X1286848Y-2740584D01*
X1382086Y-2740584D02*
X1382086Y-2607250D01*
X1382086Y-2626298D02*
X1391610Y-2616774D01*
X1391610Y-2616774D02*
X1410658Y-2607250D01*
X1410658Y-2607250D02*
X1439229Y-2607250D01*
X1439229Y-2607250D02*
X1458277Y-2616774D01*
X1458277Y-2616774D02*
X1467801Y-2635822D01*
X1467801Y-2635822D02*
X1467801Y-2740584D01*
X1467801Y-2635822D02*
X1477324Y-2616774D01*
X1477324Y-2616774D02*
X1496372Y-2607250D01*
X1496372Y-2607250D02*
X1524943Y-2607250D01*
X1524943Y-2607250D02*
X1543991Y-2616774D01*
X1543991Y-2616774D02*
X1553515Y-2635822D01*
X1553515Y-2635822D02*
X1553515Y-2740584D01*
X1943991Y-2531060D02*
X1772563Y-2788203D01*
X2201134Y-2540584D02*
X2220182Y-2540584D01*
X2220182Y-2540584D02*
X2239229Y-2550108D01*
X2239229Y-2550108D02*
X2248753Y-2559631D01*
X2248753Y-2559631D02*
X2258277Y-2578679D01*
X2258277Y-2578679D02*
X2267801Y-2616774D01*
X2267801Y-2616774D02*
X2267801Y-2664393D01*
X2267801Y-2664393D02*
X2258277Y-2702489D01*
X2258277Y-2702489D02*
X2248753Y-2721536D01*
X2248753Y-2721536D02*
X2239229Y-2731060D01*
X2239229Y-2731060D02*
X2220182Y-2740584D01*
X2220182Y-2740584D02*
X2201134Y-2740584D01*
X2201134Y-2740584D02*
X2182087Y-2731060D01*
X2182087Y-2731060D02*
X2172563Y-2721536D01*
X2172563Y-2721536D02*
X2163039Y-2702489D01*
X2163039Y-2702489D02*
X2153515Y-2664393D01*
X2153515Y-2664393D02*
X2153515Y-2616774D01*
X2153515Y-2616774D02*
X2163039Y-2578679D01*
X2163039Y-2578679D02*
X2172563Y-2559631D01*
X2172563Y-2559631D02*
X2182087Y-2550108D01*
X2182087Y-2550108D02*
X2201134Y-2540584D01*
X2353515Y-2721536D02*
X2363039Y-2731060D01*
X2363039Y-2731060D02*
X2353515Y-2740584D01*
X2353515Y-2740584D02*
X2343991Y-2731060D01*
X2343991Y-2731060D02*
X2353515Y-2721536D01*
X2353515Y-2721536D02*
X2353515Y-2740584D01*
X2486848Y-2540584D02*
X2505896Y-2540584D01*
X2505896Y-2540584D02*
X2524944Y-2550108D01*
X2524944Y-2550108D02*
X2534468Y-2559631D01*
X2534468Y-2559631D02*
X2543991Y-2578679D01*
X2543991Y-2578679D02*
X2553515Y-2616774D01*
X2553515Y-2616774D02*
X2553515Y-2664393D01*
X2553515Y-2664393D02*
X2543991Y-2702489D01*
X2543991Y-2702489D02*
X2534468Y-2721536D01*
X2534468Y-2721536D02*
X2524944Y-2731060D01*
X2524944Y-2731060D02*
X2505896Y-2740584D01*
X2505896Y-2740584D02*
X2486848Y-2740584D01*
X2486848Y-2740584D02*
X2467801Y-2731060D01*
X2467801Y-2731060D02*
X2458277Y-2721536D01*
X2458277Y-2721536D02*
X2448753Y-2702489D01*
X2448753Y-2702489D02*
X2439229Y-2664393D01*
X2439229Y-2664393D02*
X2439229Y-2616774D01*
X2439229Y-2616774D02*
X2448753Y-2578679D01*
X2448753Y-2578679D02*
X2458277Y-2559631D01*
X2458277Y-2559631D02*
X2467801Y-2550108D01*
X2467801Y-2550108D02*
X2486848Y-2540584D01*
X2743991Y-2740584D02*
X2629706Y-2740584D01*
X2686848Y-2740584D02*
X2686848Y-2540584D01*
X2686848Y-2540584D02*
X2667801Y-2569155D01*
X2667801Y-2569155D02*
X2648753Y-2588203D01*
X2648753Y-2588203D02*
X2629706Y-2597727D01*
X2934467Y-2740584D02*
X2820182Y-2740584D01*
X2877325Y-2740584D02*
X2877325Y-2540584D01*
X2877325Y-2540584D02*
X2858277Y-2569155D01*
X2858277Y-2569155D02*
X2839229Y-2588203D01*
X2839229Y-2588203D02*
X2820182Y-2597727D01*
X3048753Y-2626298D02*
X3029706Y-2616774D01*
X3029706Y-2616774D02*
X3020182Y-2607250D01*
X3020182Y-2607250D02*
X3010658Y-2588203D01*
X3010658Y-2588203D02*
X3010658Y-2578679D01*
X3010658Y-2578679D02*
X3020182Y-2559631D01*
X3020182Y-2559631D02*
X3029706Y-2550108D01*
X3029706Y-2550108D02*
X3048753Y-2540584D01*
X3048753Y-2540584D02*
X3086848Y-2540584D01*
X3086848Y-2540584D02*
X3105896Y-2550108D01*
X3105896Y-2550108D02*
X3115420Y-2559631D01*
X3115420Y-2559631D02*
X3124944Y-2578679D01*
X3124944Y-2578679D02*
X3124944Y-2588203D01*
X3124944Y-2588203D02*
X3115420Y-2607250D01*
X3115420Y-2607250D02*
X3105896Y-2616774D01*
X3105896Y-2616774D02*
X3086848Y-2626298D01*
X3086848Y-2626298D02*
X3048753Y-2626298D01*
X3048753Y-2626298D02*
X3029706Y-2635822D01*
X3029706Y-2635822D02*
X3020182Y-2645346D01*
X3020182Y-2645346D02*
X3010658Y-2664393D01*
X3010658Y-2664393D02*
X3010658Y-2702489D01*
X3010658Y-2702489D02*
X3020182Y-2721536D01*
X3020182Y-2721536D02*
X3029706Y-2731060D01*
X3029706Y-2731060D02*
X3048753Y-2740584D01*
X3048753Y-2740584D02*
X3086848Y-2740584D01*
X3086848Y-2740584D02*
X3105896Y-2731060D01*
X3105896Y-2731060D02*
X3115420Y-2721536D01*
X3115420Y-2721536D02*
X3124944Y-2702489D01*
X3124944Y-2702489D02*
X3124944Y-2664393D01*
X3124944Y-2664393D02*
X3115420Y-2645346D01*
X3115420Y-2645346D02*
X3105896Y-2635822D01*
X3105896Y-2635822D02*
X3086848Y-2626298D01*
X3201134Y-2540584D02*
X3201134Y-2578679D01*
X3277325Y-2540584D02*
X3277325Y-2578679D01*
X3572563Y-2816774D02*
X3563039Y-2807250D01*
X3563039Y-2807250D02*
X3543991Y-2778679D01*
X3543991Y-2778679D02*
X3534468Y-2759631D01*
X3534468Y-2759631D02*
X3524944Y-2731060D01*
X3524944Y-2731060D02*
X3515420Y-2683441D01*
X3515420Y-2683441D02*
X3515420Y-2645346D01*
X3515420Y-2645346D02*
X3524944Y-2597727D01*
X3524944Y-2597727D02*
X3534468Y-2569155D01*
X3534468Y-2569155D02*
X3543991Y-2550108D01*
X3543991Y-2550108D02*
X3563039Y-2521536D01*
X3563039Y-2521536D02*
X3572563Y-2512012D01*
X3639229Y-2559631D02*
X3648753Y-2550108D01*
X3648753Y-2550108D02*
X3667801Y-2540584D01*
X3667801Y-2540584D02*
X3715420Y-2540584D01*
X3715420Y-2540584D02*
X3734468Y-2550108D01*
X3734468Y-2550108D02*
X3743991Y-2559631D01*
X3743991Y-2559631D02*
X3753515Y-2578679D01*
X3753515Y-2578679D02*
X3753515Y-2597727D01*
X3753515Y-2597727D02*
X3743991Y-2626298D01*
X3743991Y-2626298D02*
X3629706Y-2740584D01*
X3629706Y-2740584D02*
X3753515Y-2740584D01*
X3934468Y-2540584D02*
X3839229Y-2540584D01*
X3839229Y-2540584D02*
X3829706Y-2635822D01*
X3829706Y-2635822D02*
X3839229Y-2626298D01*
X3839229Y-2626298D02*
X3858277Y-2616774D01*
X3858277Y-2616774D02*
X3905896Y-2616774D01*
X3905896Y-2616774D02*
X3924944Y-2626298D01*
X3924944Y-2626298D02*
X3934468Y-2635822D01*
X3934468Y-2635822D02*
X3943991Y-2654870D01*
X3943991Y-2654870D02*
X3943991Y-2702489D01*
X3943991Y-2702489D02*
X3934468Y-2721536D01*
X3934468Y-2721536D02*
X3924944Y-2731060D01*
X3924944Y-2731060D02*
X3905896Y-2740584D01*
X3905896Y-2740584D02*
X3858277Y-2740584D01*
X3858277Y-2740584D02*
X3839229Y-2731060D01*
X3839229Y-2731060D02*
X3829706Y-2721536D01*
X4182087Y-2740584D02*
X4182087Y-2540584D01*
X4267801Y-2740584D02*
X4267801Y-2635822D01*
X4267801Y-2635822D02*
X4258277Y-2616774D01*
X4258277Y-2616774D02*
X4239230Y-2607250D01*
X4239230Y-2607250D02*
X4210658Y-2607250D01*
X4210658Y-2607250D02*
X4191610Y-2616774D01*
X4191610Y-2616774D02*
X4182087Y-2626298D01*
X4391611Y-2740584D02*
X4372563Y-2731060D01*
X4372563Y-2731060D02*
X4363039Y-2721536D01*
X4363039Y-2721536D02*
X4353515Y-2702489D01*
X4353515Y-2702489D02*
X4353515Y-2645346D01*
X4353515Y-2645346D02*
X4363039Y-2626298D01*
X4363039Y-2626298D02*
X4372563Y-2616774D01*
X4372563Y-2616774D02*
X4391611Y-2607250D01*
X4391611Y-2607250D02*
X4420182Y-2607250D01*
X4420182Y-2607250D02*
X4439230Y-2616774D01*
X4439230Y-2616774D02*
X4448753Y-2626298D01*
X4448753Y-2626298D02*
X4458277Y-2645346D01*
X4458277Y-2645346D02*
X4458277Y-2702489D01*
X4458277Y-2702489D02*
X4448753Y-2721536D01*
X4448753Y-2721536D02*
X4439230Y-2731060D01*
X4439230Y-2731060D02*
X4420182Y-2740584D01*
X4420182Y-2740584D02*
X4391611Y-2740584D01*
X4572563Y-2740584D02*
X4553515Y-2731060D01*
X4553515Y-2731060D02*
X4543992Y-2712012D01*
X4543992Y-2712012D02*
X4543992Y-2540584D01*
X4724944Y-2731060D02*
X4705896Y-2740584D01*
X4705896Y-2740584D02*
X4667801Y-2740584D01*
X4667801Y-2740584D02*
X4648753Y-2731060D01*
X4648753Y-2731060D02*
X4639230Y-2712012D01*
X4639230Y-2712012D02*
X4639230Y-2635822D01*
X4639230Y-2635822D02*
X4648753Y-2616774D01*
X4648753Y-2616774D02*
X4667801Y-2607250D01*
X4667801Y-2607250D02*
X4705896Y-2607250D01*
X4705896Y-2607250D02*
X4724944Y-2616774D01*
X4724944Y-2616774D02*
X4734468Y-2635822D01*
X4734468Y-2635822D02*
X4734468Y-2654870D01*
X4734468Y-2654870D02*
X4639230Y-2673917D01*
X4810658Y-2731060D02*
X4829706Y-2740584D01*
X4829706Y-2740584D02*
X4867801Y-2740584D01*
X4867801Y-2740584D02*
X4886849Y-2731060D01*
X4886849Y-2731060D02*
X4896373Y-2712012D01*
X4896373Y-2712012D02*
X4896373Y-2702489D01*
X4896373Y-2702489D02*
X4886849Y-2683441D01*
X4886849Y-2683441D02*
X4867801Y-2673917D01*
X4867801Y-2673917D02*
X4839230Y-2673917D01*
X4839230Y-2673917D02*
X4820182Y-2664393D01*
X4820182Y-2664393D02*
X4810658Y-2645346D01*
X4810658Y-2645346D02*
X4810658Y-2635822D01*
X4810658Y-2635822D02*
X4820182Y-2616774D01*
X4820182Y-2616774D02*
X4839230Y-2607250D01*
X4839230Y-2607250D02*
X4867801Y-2607250D01*
X4867801Y-2607250D02*
X4886849Y-2616774D01*
X4963039Y-2816774D02*
X4972563Y-2807250D01*
X4972563Y-2807250D02*
X4991611Y-2778679D01*
X4991611Y-2778679D02*
X5001134Y-2759631D01*
X5001134Y-2759631D02*
X5010658Y-2731060D01*
X5010658Y-2731060D02*
X5020182Y-2683441D01*
X5020182Y-2683441D02*
X5020182Y-2645346D01*
X5020182Y-2645346D02*
X5010658Y-2597727D01*
X5010658Y-2597727D02*
X5001134Y-2569155D01*
X5001134Y-2569155D02*
X4991611Y-2550108D01*
X4991611Y-2550108D02*
X4972563Y-2521536D01*
X4972563Y-2521536D02*
X4963039Y-2512012D01*
D12*
X-2500Y-2913100D02*
G75*
G02*
X-35500Y-2913100I-16500J0D01*
G01*
X-35500Y-2913100D02*
G75*
G02*
X-2500Y-2913100I16500J0D01*
G01*
D11*
X296372Y-2804584D02*
X315420Y-2804584D01*
X315420Y-2804584D02*
X334467Y-2814108D01*
X334467Y-2814108D02*
X343991Y-2823631D01*
X343991Y-2823631D02*
X353515Y-2842679D01*
X353515Y-2842679D02*
X363039Y-2880774D01*
X363039Y-2880774D02*
X363039Y-2928393D01*
X363039Y-2928393D02*
X353515Y-2966488D01*
X353515Y-2966488D02*
X343991Y-2985536D01*
X343991Y-2985536D02*
X334467Y-2995060D01*
X334467Y-2995060D02*
X315420Y-3004584D01*
X315420Y-3004584D02*
X296372Y-3004584D01*
X296372Y-3004584D02*
X277324Y-2995060D01*
X277324Y-2995060D02*
X267801Y-2985536D01*
X267801Y-2985536D02*
X258277Y-2966488D01*
X258277Y-2966488D02*
X248753Y-2928393D01*
X248753Y-2928393D02*
X248753Y-2880774D01*
X248753Y-2880774D02*
X258277Y-2842679D01*
X258277Y-2842679D02*
X267801Y-2823631D01*
X267801Y-2823631D02*
X277324Y-2814108D01*
X277324Y-2814108D02*
X296372Y-2804584D01*
X448753Y-2985536D02*
X458277Y-2995060D01*
X458277Y-2995060D02*
X448753Y-3004584D01*
X448753Y-3004584D02*
X439229Y-2995060D01*
X439229Y-2995060D02*
X448753Y-2985536D01*
X448753Y-2985536D02*
X448753Y-3004584D01*
X524944Y-2804584D02*
X648753Y-2804584D01*
X648753Y-2804584D02*
X582086Y-2880774D01*
X582086Y-2880774D02*
X610658Y-2880774D01*
X610658Y-2880774D02*
X629705Y-2890298D01*
X629705Y-2890298D02*
X639229Y-2899822D01*
X639229Y-2899822D02*
X648753Y-2918869D01*
X648753Y-2918869D02*
X648753Y-2966488D01*
X648753Y-2966488D02*
X639229Y-2985536D01*
X639229Y-2985536D02*
X629705Y-2995060D01*
X629705Y-2995060D02*
X610658Y-3004584D01*
X610658Y-3004584D02*
X553515Y-3004584D01*
X553515Y-3004584D02*
X534467Y-2995060D01*
X534467Y-2995060D02*
X524944Y-2985536D01*
X715420Y-2804584D02*
X839229Y-2804584D01*
X839229Y-2804584D02*
X772562Y-2880774D01*
X772562Y-2880774D02*
X801134Y-2880774D01*
X801134Y-2880774D02*
X820182Y-2890298D01*
X820182Y-2890298D02*
X829705Y-2899822D01*
X829705Y-2899822D02*
X839229Y-2918869D01*
X839229Y-2918869D02*
X839229Y-2966488D01*
X839229Y-2966488D02*
X829705Y-2985536D01*
X829705Y-2985536D02*
X820182Y-2995060D01*
X820182Y-2995060D02*
X801134Y-3004584D01*
X801134Y-3004584D02*
X743991Y-3004584D01*
X743991Y-3004584D02*
X724943Y-2995060D01*
X724943Y-2995060D02*
X715420Y-2985536D01*
X963039Y-2804584D02*
X982086Y-2804584D01*
X982086Y-2804584D02*
X1001134Y-2814108D01*
X1001134Y-2814108D02*
X1010658Y-2823631D01*
X1010658Y-2823631D02*
X1020182Y-2842679D01*
X1020182Y-2842679D02*
X1029705Y-2880774D01*
X1029705Y-2880774D02*
X1029705Y-2928393D01*
X1029705Y-2928393D02*
X1020182Y-2966488D01*
X1020182Y-2966488D02*
X1010658Y-2985536D01*
X1010658Y-2985536D02*
X1001134Y-2995060D01*
X1001134Y-2995060D02*
X982086Y-3004584D01*
X982086Y-3004584D02*
X963039Y-3004584D01*
X963039Y-3004584D02*
X943991Y-2995060D01*
X943991Y-2995060D02*
X934467Y-2985536D01*
X934467Y-2985536D02*
X924943Y-2966488D01*
X924943Y-2966488D02*
X915420Y-2928393D01*
X915420Y-2928393D02*
X915420Y-2880774D01*
X915420Y-2880774D02*
X924943Y-2842679D01*
X924943Y-2842679D02*
X934467Y-2823631D01*
X934467Y-2823631D02*
X943991Y-2814108D01*
X943991Y-2814108D02*
X963039Y-2804584D01*
X1115420Y-3004584D02*
X1115420Y-2871250D01*
X1115420Y-2890298D02*
X1124944Y-2880774D01*
X1124944Y-2880774D02*
X1143991Y-2871250D01*
X1143991Y-2871250D02*
X1172563Y-2871250D01*
X1172563Y-2871250D02*
X1191610Y-2880774D01*
X1191610Y-2880774D02*
X1201134Y-2899822D01*
X1201134Y-2899822D02*
X1201134Y-3004584D01*
X1201134Y-2899822D02*
X1210658Y-2880774D01*
X1210658Y-2880774D02*
X1229705Y-2871250D01*
X1229705Y-2871250D02*
X1258277Y-2871250D01*
X1258277Y-2871250D02*
X1277325Y-2880774D01*
X1277325Y-2880774D02*
X1286848Y-2899822D01*
X1286848Y-2899822D02*
X1286848Y-3004584D01*
X1382086Y-3004584D02*
X1382086Y-2871250D01*
X1382086Y-2890298D02*
X1391610Y-2880774D01*
X1391610Y-2880774D02*
X1410658Y-2871250D01*
X1410658Y-2871250D02*
X1439229Y-2871250D01*
X1439229Y-2871250D02*
X1458277Y-2880774D01*
X1458277Y-2880774D02*
X1467801Y-2899822D01*
X1467801Y-2899822D02*
X1467801Y-3004584D01*
X1467801Y-2899822D02*
X1477324Y-2880774D01*
X1477324Y-2880774D02*
X1496372Y-2871250D01*
X1496372Y-2871250D02*
X1524943Y-2871250D01*
X1524943Y-2871250D02*
X1543991Y-2880774D01*
X1543991Y-2880774D02*
X1553515Y-2899822D01*
X1553515Y-2899822D02*
X1553515Y-3004584D01*
X1943991Y-2795060D02*
X1772563Y-3052203D01*
X2201134Y-2804584D02*
X2220182Y-2804584D01*
X2220182Y-2804584D02*
X2239229Y-2814108D01*
X2239229Y-2814108D02*
X2248753Y-2823631D01*
X2248753Y-2823631D02*
X2258277Y-2842679D01*
X2258277Y-2842679D02*
X2267801Y-2880774D01*
X2267801Y-2880774D02*
X2267801Y-2928393D01*
X2267801Y-2928393D02*
X2258277Y-2966488D01*
X2258277Y-2966488D02*
X2248753Y-2985536D01*
X2248753Y-2985536D02*
X2239229Y-2995060D01*
X2239229Y-2995060D02*
X2220182Y-3004584D01*
X2220182Y-3004584D02*
X2201134Y-3004584D01*
X2201134Y-3004584D02*
X2182087Y-2995060D01*
X2182087Y-2995060D02*
X2172563Y-2985536D01*
X2172563Y-2985536D02*
X2163039Y-2966488D01*
X2163039Y-2966488D02*
X2153515Y-2928393D01*
X2153515Y-2928393D02*
X2153515Y-2880774D01*
X2153515Y-2880774D02*
X2163039Y-2842679D01*
X2163039Y-2842679D02*
X2172563Y-2823631D01*
X2172563Y-2823631D02*
X2182087Y-2814108D01*
X2182087Y-2814108D02*
X2201134Y-2804584D01*
X2353515Y-2985536D02*
X2363039Y-2995060D01*
X2363039Y-2995060D02*
X2353515Y-3004584D01*
X2353515Y-3004584D02*
X2343991Y-2995060D01*
X2343991Y-2995060D02*
X2353515Y-2985536D01*
X2353515Y-2985536D02*
X2353515Y-3004584D01*
X2486848Y-2804584D02*
X2505896Y-2804584D01*
X2505896Y-2804584D02*
X2524944Y-2814108D01*
X2524944Y-2814108D02*
X2534468Y-2823631D01*
X2534468Y-2823631D02*
X2543991Y-2842679D01*
X2543991Y-2842679D02*
X2553515Y-2880774D01*
X2553515Y-2880774D02*
X2553515Y-2928393D01*
X2553515Y-2928393D02*
X2543991Y-2966488D01*
X2543991Y-2966488D02*
X2534468Y-2985536D01*
X2534468Y-2985536D02*
X2524944Y-2995060D01*
X2524944Y-2995060D02*
X2505896Y-3004584D01*
X2505896Y-3004584D02*
X2486848Y-3004584D01*
X2486848Y-3004584D02*
X2467801Y-2995060D01*
X2467801Y-2995060D02*
X2458277Y-2985536D01*
X2458277Y-2985536D02*
X2448753Y-2966488D01*
X2448753Y-2966488D02*
X2439229Y-2928393D01*
X2439229Y-2928393D02*
X2439229Y-2880774D01*
X2439229Y-2880774D02*
X2448753Y-2842679D01*
X2448753Y-2842679D02*
X2458277Y-2823631D01*
X2458277Y-2823631D02*
X2467801Y-2814108D01*
X2467801Y-2814108D02*
X2486848Y-2804584D01*
X2743991Y-3004584D02*
X2629706Y-3004584D01*
X2686848Y-3004584D02*
X2686848Y-2804584D01*
X2686848Y-2804584D02*
X2667801Y-2833155D01*
X2667801Y-2833155D02*
X2648753Y-2852203D01*
X2648753Y-2852203D02*
X2629706Y-2861727D01*
X2810658Y-2804584D02*
X2934467Y-2804584D01*
X2934467Y-2804584D02*
X2867801Y-2880774D01*
X2867801Y-2880774D02*
X2896372Y-2880774D01*
X2896372Y-2880774D02*
X2915420Y-2890298D01*
X2915420Y-2890298D02*
X2924944Y-2899822D01*
X2924944Y-2899822D02*
X2934467Y-2918869D01*
X2934467Y-2918869D02*
X2934467Y-2966488D01*
X2934467Y-2966488D02*
X2924944Y-2985536D01*
X2924944Y-2985536D02*
X2915420Y-2995060D01*
X2915420Y-2995060D02*
X2896372Y-3004584D01*
X2896372Y-3004584D02*
X2839229Y-3004584D01*
X2839229Y-3004584D02*
X2820182Y-2995060D01*
X2820182Y-2995060D02*
X2810658Y-2985536D01*
X3058277Y-2804584D02*
X3077325Y-2804584D01*
X3077325Y-2804584D02*
X3096372Y-2814108D01*
X3096372Y-2814108D02*
X3105896Y-2823631D01*
X3105896Y-2823631D02*
X3115420Y-2842679D01*
X3115420Y-2842679D02*
X3124944Y-2880774D01*
X3124944Y-2880774D02*
X3124944Y-2928393D01*
X3124944Y-2928393D02*
X3115420Y-2966488D01*
X3115420Y-2966488D02*
X3105896Y-2985536D01*
X3105896Y-2985536D02*
X3096372Y-2995060D01*
X3096372Y-2995060D02*
X3077325Y-3004584D01*
X3077325Y-3004584D02*
X3058277Y-3004584D01*
X3058277Y-3004584D02*
X3039229Y-2995060D01*
X3039229Y-2995060D02*
X3029706Y-2985536D01*
X3029706Y-2985536D02*
X3020182Y-2966488D01*
X3020182Y-2966488D02*
X3010658Y-2928393D01*
X3010658Y-2928393D02*
X3010658Y-2880774D01*
X3010658Y-2880774D02*
X3020182Y-2842679D01*
X3020182Y-2842679D02*
X3029706Y-2823631D01*
X3029706Y-2823631D02*
X3039229Y-2814108D01*
X3039229Y-2814108D02*
X3058277Y-2804584D01*
X3201134Y-2804584D02*
X3201134Y-2842679D01*
X3277325Y-2804584D02*
X3277325Y-2842679D01*
X3572563Y-3080774D02*
X3563039Y-3071250D01*
X3563039Y-3071250D02*
X3543991Y-3042679D01*
X3543991Y-3042679D02*
X3534468Y-3023631D01*
X3534468Y-3023631D02*
X3524944Y-2995060D01*
X3524944Y-2995060D02*
X3515420Y-2947441D01*
X3515420Y-2947441D02*
X3515420Y-2909346D01*
X3515420Y-2909346D02*
X3524944Y-2861727D01*
X3524944Y-2861727D02*
X3534468Y-2833155D01*
X3534468Y-2833155D02*
X3543991Y-2814108D01*
X3543991Y-2814108D02*
X3563039Y-2785536D01*
X3563039Y-2785536D02*
X3572563Y-2776012D01*
X3734468Y-2804584D02*
X3696372Y-2804584D01*
X3696372Y-2804584D02*
X3677325Y-2814108D01*
X3677325Y-2814108D02*
X3667801Y-2823631D01*
X3667801Y-2823631D02*
X3648753Y-2852203D01*
X3648753Y-2852203D02*
X3639229Y-2890298D01*
X3639229Y-2890298D02*
X3639229Y-2966488D01*
X3639229Y-2966488D02*
X3648753Y-2985536D01*
X3648753Y-2985536D02*
X3658277Y-2995060D01*
X3658277Y-2995060D02*
X3677325Y-3004584D01*
X3677325Y-3004584D02*
X3715420Y-3004584D01*
X3715420Y-3004584D02*
X3734468Y-2995060D01*
X3734468Y-2995060D02*
X3743991Y-2985536D01*
X3743991Y-2985536D02*
X3753515Y-2966488D01*
X3753515Y-2966488D02*
X3753515Y-2918869D01*
X3753515Y-2918869D02*
X3743991Y-2899822D01*
X3743991Y-2899822D02*
X3734468Y-2890298D01*
X3734468Y-2890298D02*
X3715420Y-2880774D01*
X3715420Y-2880774D02*
X3677325Y-2880774D01*
X3677325Y-2880774D02*
X3658277Y-2890298D01*
X3658277Y-2890298D02*
X3648753Y-2899822D01*
X3648753Y-2899822D02*
X3639229Y-2918869D01*
X3991610Y-3004584D02*
X3991610Y-2804584D01*
X4077325Y-3004584D02*
X4077325Y-2899822D01*
X4077325Y-2899822D02*
X4067801Y-2880774D01*
X4067801Y-2880774D02*
X4048753Y-2871250D01*
X4048753Y-2871250D02*
X4020182Y-2871250D01*
X4020182Y-2871250D02*
X4001134Y-2880774D01*
X4001134Y-2880774D02*
X3991610Y-2890298D01*
X4201134Y-3004584D02*
X4182087Y-2995060D01*
X4182087Y-2995060D02*
X4172563Y-2985536D01*
X4172563Y-2985536D02*
X4163039Y-2966488D01*
X4163039Y-2966488D02*
X4163039Y-2909346D01*
X4163039Y-2909346D02*
X4172563Y-2890298D01*
X4172563Y-2890298D02*
X4182087Y-2880774D01*
X4182087Y-2880774D02*
X4201134Y-2871250D01*
X4201134Y-2871250D02*
X4229706Y-2871250D01*
X4229706Y-2871250D02*
X4248753Y-2880774D01*
X4248753Y-2880774D02*
X4258277Y-2890298D01*
X4258277Y-2890298D02*
X4267801Y-2909346D01*
X4267801Y-2909346D02*
X4267801Y-2966488D01*
X4267801Y-2966488D02*
X4258277Y-2985536D01*
X4258277Y-2985536D02*
X4248753Y-2995060D01*
X4248753Y-2995060D02*
X4229706Y-3004584D01*
X4229706Y-3004584D02*
X4201134Y-3004584D01*
X4382087Y-3004584D02*
X4363039Y-2995060D01*
X4363039Y-2995060D02*
X4353515Y-2976012D01*
X4353515Y-2976012D02*
X4353515Y-2804584D01*
X4534468Y-2995060D02*
X4515420Y-3004584D01*
X4515420Y-3004584D02*
X4477325Y-3004584D01*
X4477325Y-3004584D02*
X4458277Y-2995060D01*
X4458277Y-2995060D02*
X4448753Y-2976012D01*
X4448753Y-2976012D02*
X4448753Y-2899822D01*
X4448753Y-2899822D02*
X4458277Y-2880774D01*
X4458277Y-2880774D02*
X4477325Y-2871250D01*
X4477325Y-2871250D02*
X4515420Y-2871250D01*
X4515420Y-2871250D02*
X4534468Y-2880774D01*
X4534468Y-2880774D02*
X4543992Y-2899822D01*
X4543992Y-2899822D02*
X4543992Y-2918869D01*
X4543992Y-2918869D02*
X4448753Y-2937917D01*
X4620182Y-2995060D02*
X4639230Y-3004584D01*
X4639230Y-3004584D02*
X4677325Y-3004584D01*
X4677325Y-3004584D02*
X4696373Y-2995060D01*
X4696373Y-2995060D02*
X4705896Y-2976012D01*
X4705896Y-2976012D02*
X4705896Y-2966488D01*
X4705896Y-2966488D02*
X4696373Y-2947441D01*
X4696373Y-2947441D02*
X4677325Y-2937917D01*
X4677325Y-2937917D02*
X4648753Y-2937917D01*
X4648753Y-2937917D02*
X4629706Y-2928393D01*
X4629706Y-2928393D02*
X4620182Y-2909346D01*
X4620182Y-2909346D02*
X4620182Y-2899822D01*
X4620182Y-2899822D02*
X4629706Y-2880774D01*
X4629706Y-2880774D02*
X4648753Y-2871250D01*
X4648753Y-2871250D02*
X4677325Y-2871250D01*
X4677325Y-2871250D02*
X4696373Y-2880774D01*
X4772563Y-3080774D02*
X4782087Y-3071250D01*
X4782087Y-3071250D02*
X4801134Y-3042679D01*
X4801134Y-3042679D02*
X4810658Y-3023631D01*
X4810658Y-3023631D02*
X4820182Y-2995060D01*
X4820182Y-2995060D02*
X4829706Y-2947441D01*
X4829706Y-2947441D02*
X4829706Y-2909346D01*
X4829706Y-2909346D02*
X4820182Y-2861727D01*
X4820182Y-2861727D02*
X4810658Y-2833155D01*
X4810658Y-2833155D02*
X4801134Y-2814108D01*
X4801134Y-2814108D02*
X4782087Y-2785536D01*
X4782087Y-2785536D02*
X4772563Y-2776012D01*
D12*
X-52500Y-3127100D02*
X-52500Y-3227100D01*
X-102500Y-3177100D02*
X-2500Y-3177100D01*
D11*
X363039Y-3268584D02*
X248753Y-3268584D01*
X305896Y-3268584D02*
X305896Y-3068584D01*
X305896Y-3068584D02*
X286848Y-3097155D01*
X286848Y-3097155D02*
X267801Y-3116203D01*
X267801Y-3116203D02*
X248753Y-3125727D01*
X448753Y-3249536D02*
X458277Y-3259060D01*
X458277Y-3259060D02*
X448753Y-3268584D01*
X448753Y-3268584D02*
X439229Y-3259060D01*
X439229Y-3259060D02*
X448753Y-3249536D01*
X448753Y-3249536D02*
X448753Y-3268584D01*
X582086Y-3068584D02*
X601134Y-3068584D01*
X601134Y-3068584D02*
X620182Y-3078108D01*
X620182Y-3078108D02*
X629705Y-3087631D01*
X629705Y-3087631D02*
X639229Y-3106679D01*
X639229Y-3106679D02*
X648753Y-3144774D01*
X648753Y-3144774D02*
X648753Y-3192393D01*
X648753Y-3192393D02*
X639229Y-3230488D01*
X639229Y-3230488D02*
X629705Y-3249536D01*
X629705Y-3249536D02*
X620182Y-3259060D01*
X620182Y-3259060D02*
X601134Y-3268584D01*
X601134Y-3268584D02*
X582086Y-3268584D01*
X582086Y-3268584D02*
X563039Y-3259060D01*
X563039Y-3259060D02*
X553515Y-3249536D01*
X553515Y-3249536D02*
X543991Y-3230488D01*
X543991Y-3230488D02*
X534467Y-3192393D01*
X534467Y-3192393D02*
X534467Y-3144774D01*
X534467Y-3144774D02*
X543991Y-3106679D01*
X543991Y-3106679D02*
X553515Y-3087631D01*
X553515Y-3087631D02*
X563039Y-3078108D01*
X563039Y-3078108D02*
X582086Y-3068584D01*
X772562Y-3068584D02*
X791610Y-3068584D01*
X791610Y-3068584D02*
X810658Y-3078108D01*
X810658Y-3078108D02*
X820182Y-3087631D01*
X820182Y-3087631D02*
X829705Y-3106679D01*
X829705Y-3106679D02*
X839229Y-3144774D01*
X839229Y-3144774D02*
X839229Y-3192393D01*
X839229Y-3192393D02*
X829705Y-3230488D01*
X829705Y-3230488D02*
X820182Y-3249536D01*
X820182Y-3249536D02*
X810658Y-3259060D01*
X810658Y-3259060D02*
X791610Y-3268584D01*
X791610Y-3268584D02*
X772562Y-3268584D01*
X772562Y-3268584D02*
X753515Y-3259060D01*
X753515Y-3259060D02*
X743991Y-3249536D01*
X743991Y-3249536D02*
X734467Y-3230488D01*
X734467Y-3230488D02*
X724943Y-3192393D01*
X724943Y-3192393D02*
X724943Y-3144774D01*
X724943Y-3144774D02*
X734467Y-3106679D01*
X734467Y-3106679D02*
X743991Y-3087631D01*
X743991Y-3087631D02*
X753515Y-3078108D01*
X753515Y-3078108D02*
X772562Y-3068584D01*
X963039Y-3068584D02*
X982086Y-3068584D01*
X982086Y-3068584D02*
X1001134Y-3078108D01*
X1001134Y-3078108D02*
X1010658Y-3087631D01*
X1010658Y-3087631D02*
X1020182Y-3106679D01*
X1020182Y-3106679D02*
X1029705Y-3144774D01*
X1029705Y-3144774D02*
X1029705Y-3192393D01*
X1029705Y-3192393D02*
X1020182Y-3230488D01*
X1020182Y-3230488D02*
X1010658Y-3249536D01*
X1010658Y-3249536D02*
X1001134Y-3259060D01*
X1001134Y-3259060D02*
X982086Y-3268584D01*
X982086Y-3268584D02*
X963039Y-3268584D01*
X963039Y-3268584D02*
X943991Y-3259060D01*
X943991Y-3259060D02*
X934467Y-3249536D01*
X934467Y-3249536D02*
X924943Y-3230488D01*
X924943Y-3230488D02*
X915420Y-3192393D01*
X915420Y-3192393D02*
X915420Y-3144774D01*
X915420Y-3144774D02*
X924943Y-3106679D01*
X924943Y-3106679D02*
X934467Y-3087631D01*
X934467Y-3087631D02*
X943991Y-3078108D01*
X943991Y-3078108D02*
X963039Y-3068584D01*
X1115420Y-3268584D02*
X1115420Y-3135250D01*
X1115420Y-3154298D02*
X1124944Y-3144774D01*
X1124944Y-3144774D02*
X1143991Y-3135250D01*
X1143991Y-3135250D02*
X1172563Y-3135250D01*
X1172563Y-3135250D02*
X1191610Y-3144774D01*
X1191610Y-3144774D02*
X1201134Y-3163822D01*
X1201134Y-3163822D02*
X1201134Y-3268584D01*
X1201134Y-3163822D02*
X1210658Y-3144774D01*
X1210658Y-3144774D02*
X1229705Y-3135250D01*
X1229705Y-3135250D02*
X1258277Y-3135250D01*
X1258277Y-3135250D02*
X1277325Y-3144774D01*
X1277325Y-3144774D02*
X1286848Y-3163822D01*
X1286848Y-3163822D02*
X1286848Y-3268584D01*
X1382086Y-3268584D02*
X1382086Y-3135250D01*
X1382086Y-3154298D02*
X1391610Y-3144774D01*
X1391610Y-3144774D02*
X1410658Y-3135250D01*
X1410658Y-3135250D02*
X1439229Y-3135250D01*
X1439229Y-3135250D02*
X1458277Y-3144774D01*
X1458277Y-3144774D02*
X1467801Y-3163822D01*
X1467801Y-3163822D02*
X1467801Y-3268584D01*
X1467801Y-3163822D02*
X1477324Y-3144774D01*
X1477324Y-3144774D02*
X1496372Y-3135250D01*
X1496372Y-3135250D02*
X1524943Y-3135250D01*
X1524943Y-3135250D02*
X1543991Y-3144774D01*
X1543991Y-3144774D02*
X1553515Y-3163822D01*
X1553515Y-3163822D02*
X1553515Y-3268584D01*
X1943991Y-3059060D02*
X1772563Y-3316203D01*
X2201134Y-3068584D02*
X2220182Y-3068584D01*
X2220182Y-3068584D02*
X2239229Y-3078108D01*
X2239229Y-3078108D02*
X2248753Y-3087631D01*
X2248753Y-3087631D02*
X2258277Y-3106679D01*
X2258277Y-3106679D02*
X2267801Y-3144774D01*
X2267801Y-3144774D02*
X2267801Y-3192393D01*
X2267801Y-3192393D02*
X2258277Y-3230488D01*
X2258277Y-3230488D02*
X2248753Y-3249536D01*
X2248753Y-3249536D02*
X2239229Y-3259060D01*
X2239229Y-3259060D02*
X2220182Y-3268584D01*
X2220182Y-3268584D02*
X2201134Y-3268584D01*
X2201134Y-3268584D02*
X2182087Y-3259060D01*
X2182087Y-3259060D02*
X2172563Y-3249536D01*
X2172563Y-3249536D02*
X2163039Y-3230488D01*
X2163039Y-3230488D02*
X2153515Y-3192393D01*
X2153515Y-3192393D02*
X2153515Y-3144774D01*
X2153515Y-3144774D02*
X2163039Y-3106679D01*
X2163039Y-3106679D02*
X2172563Y-3087631D01*
X2172563Y-3087631D02*
X2182087Y-3078108D01*
X2182087Y-3078108D02*
X2201134Y-3068584D01*
X2353515Y-3249536D02*
X2363039Y-3259060D01*
X2363039Y-3259060D02*
X2353515Y-3268584D01*
X2353515Y-3268584D02*
X2343991Y-3259060D01*
X2343991Y-3259060D02*
X2353515Y-3249536D01*
X2353515Y-3249536D02*
X2353515Y-3268584D01*
X2486848Y-3068584D02*
X2505896Y-3068584D01*
X2505896Y-3068584D02*
X2524944Y-3078108D01*
X2524944Y-3078108D02*
X2534468Y-3087631D01*
X2534468Y-3087631D02*
X2543991Y-3106679D01*
X2543991Y-3106679D02*
X2553515Y-3144774D01*
X2553515Y-3144774D02*
X2553515Y-3192393D01*
X2553515Y-3192393D02*
X2543991Y-3230488D01*
X2543991Y-3230488D02*
X2534468Y-3249536D01*
X2534468Y-3249536D02*
X2524944Y-3259060D01*
X2524944Y-3259060D02*
X2505896Y-3268584D01*
X2505896Y-3268584D02*
X2486848Y-3268584D01*
X2486848Y-3268584D02*
X2467801Y-3259060D01*
X2467801Y-3259060D02*
X2458277Y-3249536D01*
X2458277Y-3249536D02*
X2448753Y-3230488D01*
X2448753Y-3230488D02*
X2439229Y-3192393D01*
X2439229Y-3192393D02*
X2439229Y-3144774D01*
X2439229Y-3144774D02*
X2448753Y-3106679D01*
X2448753Y-3106679D02*
X2458277Y-3087631D01*
X2458277Y-3087631D02*
X2467801Y-3078108D01*
X2467801Y-3078108D02*
X2486848Y-3068584D01*
X2620182Y-3068584D02*
X2743991Y-3068584D01*
X2743991Y-3068584D02*
X2677325Y-3144774D01*
X2677325Y-3144774D02*
X2705896Y-3144774D01*
X2705896Y-3144774D02*
X2724944Y-3154298D01*
X2724944Y-3154298D02*
X2734468Y-3163822D01*
X2734468Y-3163822D02*
X2743991Y-3182869D01*
X2743991Y-3182869D02*
X2743991Y-3230488D01*
X2743991Y-3230488D02*
X2734468Y-3249536D01*
X2734468Y-3249536D02*
X2724944Y-3259060D01*
X2724944Y-3259060D02*
X2705896Y-3268584D01*
X2705896Y-3268584D02*
X2648753Y-3268584D01*
X2648753Y-3268584D02*
X2629706Y-3259060D01*
X2629706Y-3259060D02*
X2620182Y-3249536D01*
X2839229Y-3268584D02*
X2877325Y-3268584D01*
X2877325Y-3268584D02*
X2896372Y-3259060D01*
X2896372Y-3259060D02*
X2905896Y-3249536D01*
X2905896Y-3249536D02*
X2924944Y-3220965D01*
X2924944Y-3220965D02*
X2934467Y-3182869D01*
X2934467Y-3182869D02*
X2934467Y-3106679D01*
X2934467Y-3106679D02*
X2924944Y-3087631D01*
X2924944Y-3087631D02*
X2915420Y-3078108D01*
X2915420Y-3078108D02*
X2896372Y-3068584D01*
X2896372Y-3068584D02*
X2858277Y-3068584D01*
X2858277Y-3068584D02*
X2839229Y-3078108D01*
X2839229Y-3078108D02*
X2829706Y-3087631D01*
X2829706Y-3087631D02*
X2820182Y-3106679D01*
X2820182Y-3106679D02*
X2820182Y-3154298D01*
X2820182Y-3154298D02*
X2829706Y-3173346D01*
X2829706Y-3173346D02*
X2839229Y-3182869D01*
X2839229Y-3182869D02*
X2858277Y-3192393D01*
X2858277Y-3192393D02*
X2896372Y-3192393D01*
X2896372Y-3192393D02*
X2915420Y-3182869D01*
X2915420Y-3182869D02*
X2924944Y-3173346D01*
X2924944Y-3173346D02*
X2934467Y-3154298D01*
X3105896Y-3135250D02*
X3105896Y-3268584D01*
X3058277Y-3059060D02*
X3010658Y-3201917D01*
X3010658Y-3201917D02*
X3134467Y-3201917D01*
X3201134Y-3068584D02*
X3201134Y-3106679D01*
X3277325Y-3068584D02*
X3277325Y-3106679D01*
X3572563Y-3344774D02*
X3563039Y-3335250D01*
X3563039Y-3335250D02*
X3543991Y-3306679D01*
X3543991Y-3306679D02*
X3534468Y-3287631D01*
X3534468Y-3287631D02*
X3524944Y-3259060D01*
X3524944Y-3259060D02*
X3515420Y-3211441D01*
X3515420Y-3211441D02*
X3515420Y-3173346D01*
X3515420Y-3173346D02*
X3524944Y-3125727D01*
X3524944Y-3125727D02*
X3534468Y-3097155D01*
X3534468Y-3097155D02*
X3543991Y-3078108D01*
X3543991Y-3078108D02*
X3563039Y-3049536D01*
X3563039Y-3049536D02*
X3572563Y-3040012D01*
X3753515Y-3268584D02*
X3639229Y-3268584D01*
X3696372Y-3268584D02*
X3696372Y-3068584D01*
X3696372Y-3068584D02*
X3677325Y-3097155D01*
X3677325Y-3097155D02*
X3658277Y-3116203D01*
X3658277Y-3116203D02*
X3639229Y-3125727D01*
X3877325Y-3068584D02*
X3896372Y-3068584D01*
X3896372Y-3068584D02*
X3915420Y-3078108D01*
X3915420Y-3078108D02*
X3924944Y-3087631D01*
X3924944Y-3087631D02*
X3934468Y-3106679D01*
X3934468Y-3106679D02*
X3943991Y-3144774D01*
X3943991Y-3144774D02*
X3943991Y-3192393D01*
X3943991Y-3192393D02*
X3934468Y-3230488D01*
X3934468Y-3230488D02*
X3924944Y-3249536D01*
X3924944Y-3249536D02*
X3915420Y-3259060D01*
X3915420Y-3259060D02*
X3896372Y-3268584D01*
X3896372Y-3268584D02*
X3877325Y-3268584D01*
X3877325Y-3268584D02*
X3858277Y-3259060D01*
X3858277Y-3259060D02*
X3848753Y-3249536D01*
X3848753Y-3249536D02*
X3839229Y-3230488D01*
X3839229Y-3230488D02*
X3829706Y-3192393D01*
X3829706Y-3192393D02*
X3829706Y-3144774D01*
X3829706Y-3144774D02*
X3839229Y-3106679D01*
X3839229Y-3106679D02*
X3848753Y-3087631D01*
X3848753Y-3087631D02*
X3858277Y-3078108D01*
X3858277Y-3078108D02*
X3877325Y-3068584D01*
X4182087Y-3268584D02*
X4182087Y-3068584D01*
X4267801Y-3268584D02*
X4267801Y-3163822D01*
X4267801Y-3163822D02*
X4258277Y-3144774D01*
X4258277Y-3144774D02*
X4239230Y-3135250D01*
X4239230Y-3135250D02*
X4210658Y-3135250D01*
X4210658Y-3135250D02*
X4191610Y-3144774D01*
X4191610Y-3144774D02*
X4182087Y-3154298D01*
X4391611Y-3268584D02*
X4372563Y-3259060D01*
X4372563Y-3259060D02*
X4363039Y-3249536D01*
X4363039Y-3249536D02*
X4353515Y-3230488D01*
X4353515Y-3230488D02*
X4353515Y-3173346D01*
X4353515Y-3173346D02*
X4363039Y-3154298D01*
X4363039Y-3154298D02*
X4372563Y-3144774D01*
X4372563Y-3144774D02*
X4391611Y-3135250D01*
X4391611Y-3135250D02*
X4420182Y-3135250D01*
X4420182Y-3135250D02*
X4439230Y-3144774D01*
X4439230Y-3144774D02*
X4448753Y-3154298D01*
X4448753Y-3154298D02*
X4458277Y-3173346D01*
X4458277Y-3173346D02*
X4458277Y-3230488D01*
X4458277Y-3230488D02*
X4448753Y-3249536D01*
X4448753Y-3249536D02*
X4439230Y-3259060D01*
X4439230Y-3259060D02*
X4420182Y-3268584D01*
X4420182Y-3268584D02*
X4391611Y-3268584D01*
X4572563Y-3268584D02*
X4553515Y-3259060D01*
X4553515Y-3259060D02*
X4543992Y-3240012D01*
X4543992Y-3240012D02*
X4543992Y-3068584D01*
X4724944Y-3259060D02*
X4705896Y-3268584D01*
X4705896Y-3268584D02*
X4667801Y-3268584D01*
X4667801Y-3268584D02*
X4648753Y-3259060D01*
X4648753Y-3259060D02*
X4639230Y-3240012D01*
X4639230Y-3240012D02*
X4639230Y-3163822D01*
X4639230Y-3163822D02*
X4648753Y-3144774D01*
X4648753Y-3144774D02*
X4667801Y-3135250D01*
X4667801Y-3135250D02*
X4705896Y-3135250D01*
X4705896Y-3135250D02*
X4724944Y-3144774D01*
X4724944Y-3144774D02*
X4734468Y-3163822D01*
X4734468Y-3163822D02*
X4734468Y-3182869D01*
X4734468Y-3182869D02*
X4639230Y-3201917D01*
X4810658Y-3259060D02*
X4829706Y-3268584D01*
X4829706Y-3268584D02*
X4867801Y-3268584D01*
X4867801Y-3268584D02*
X4886849Y-3259060D01*
X4886849Y-3259060D02*
X4896373Y-3240012D01*
X4896373Y-3240012D02*
X4896373Y-3230488D01*
X4896373Y-3230488D02*
X4886849Y-3211441D01*
X4886849Y-3211441D02*
X4867801Y-3201917D01*
X4867801Y-3201917D02*
X4839230Y-3201917D01*
X4839230Y-3201917D02*
X4820182Y-3192393D01*
X4820182Y-3192393D02*
X4810658Y-3173346D01*
X4810658Y-3173346D02*
X4810658Y-3163822D01*
X4810658Y-3163822D02*
X4820182Y-3144774D01*
X4820182Y-3144774D02*
X4839230Y-3135250D01*
X4839230Y-3135250D02*
X4867801Y-3135250D01*
X4867801Y-3135250D02*
X4886849Y-3144774D01*
X4963039Y-3344774D02*
X4972563Y-3335250D01*
X4972563Y-3335250D02*
X4991611Y-3306679D01*
X4991611Y-3306679D02*
X5001134Y-3287631D01*
X5001134Y-3287631D02*
X5010658Y-3259060D01*
X5010658Y-3259060D02*
X5020182Y-3211441D01*
X5020182Y-3211441D02*
X5020182Y-3173346D01*
X5020182Y-3173346D02*
X5010658Y-3125727D01*
X5010658Y-3125727D02*
X5001134Y-3097155D01*
X5001134Y-3097155D02*
X4991611Y-3078108D01*
X4991611Y-3078108D02*
X4972563Y-3049536D01*
X4972563Y-3049536D02*
X4963039Y-3040012D01*
M02*
