G04 #@! TF.GenerationSoftware,KiCad,Pcbnew,8.0.5*
G04 #@! TF.CreationDate,2024-10-21T19:45:19-04:00*
G04 #@! TF.ProjectId,DRV8871_PCB,44525638-3837-4315-9f50-43422e6b6963,rev?*
G04 #@! TF.SameCoordinates,Original*
G04 #@! TF.FileFunction,Copper,L1,Top*
G04 #@! TF.FilePolarity,Positive*
%FSLAX46Y46*%
G04 Gerber Fmt 4.6, Leading zero omitted, Abs format (unit mm)*
G04 Created by KiCad (PCBNEW 8.0.5) date 2024-10-21 19:45:19*
%MOMM*%
%LPD*%
G01*
G04 APERTURE LIST*
G04 Aperture macros list*
%AMRoundRect*
0 Rectangle with rounded corners*
0 $1 Rounding radius*
0 $2 $3 $4 $5 $6 $7 $8 $9 X,Y pos of 4 corners*
0 Add a 4 corners polygon primitive as box body*
4,1,4,$2,$3,$4,$5,$6,$7,$8,$9,$2,$3,0*
0 Add four circle primitives for the rounded corners*
1,1,$1+$1,$2,$3*
1,1,$1+$1,$4,$5*
1,1,$1+$1,$6,$7*
1,1,$1+$1,$8,$9*
0 Add four rect primitives between the rounded corners*
20,1,$1+$1,$2,$3,$4,$5,0*
20,1,$1+$1,$4,$5,$6,$7,0*
20,1,$1+$1,$6,$7,$8,$9,0*
20,1,$1+$1,$8,$9,$2,$3,0*%
G04 Aperture macros list end*
G04 #@! TA.AperFunction,SMDPad,CuDef*
%ADD10RoundRect,0.250000X0.650000X-0.325000X0.650000X0.325000X-0.650000X0.325000X-0.650000X-0.325000X0*%
G04 #@! TD*
G04 #@! TA.AperFunction,ComponentPad*
%ADD11R,1.700000X1.700000*%
G04 #@! TD*
G04 #@! TA.AperFunction,ComponentPad*
%ADD12O,1.700000X1.700000*%
G04 #@! TD*
G04 #@! TA.AperFunction,SMDPad,CuDef*
%ADD13R,2.200000X0.500000*%
G04 #@! TD*
G04 #@! TA.AperFunction,ComponentPad*
%ADD14C,0.630000*%
G04 #@! TD*
G04 #@! TA.AperFunction,SMDPad,CuDef*
%ADD15R,2.950000X4.900000*%
G04 #@! TD*
G04 #@! TA.AperFunction,SMDPad,CuDef*
%ADD16RoundRect,0.250000X-0.375000X-0.625000X0.375000X-0.625000X0.375000X0.625000X-0.375000X0.625000X0*%
G04 #@! TD*
G04 #@! TA.AperFunction,SMDPad,CuDef*
%ADD17RoundRect,0.250000X-1.250000X-0.550000X1.250000X-0.550000X1.250000X0.550000X-1.250000X0.550000X0*%
G04 #@! TD*
G04 #@! TA.AperFunction,SMDPad,CuDef*
%ADD18RoundRect,0.250000X0.312500X0.625000X-0.312500X0.625000X-0.312500X-0.625000X0.312500X-0.625000X0*%
G04 #@! TD*
G04 #@! TA.AperFunction,SMDPad,CuDef*
%ADD19RoundRect,0.250000X-0.625000X0.312500X-0.625000X-0.312500X0.625000X-0.312500X0.625000X0.312500X0*%
G04 #@! TD*
G04 #@! TA.AperFunction,ViaPad*
%ADD20C,0.600000*%
G04 #@! TD*
G04 #@! TA.AperFunction,Conductor*
%ADD21C,0.508000*%
G04 #@! TD*
G04 #@! TA.AperFunction,Conductor*
%ADD22C,0.200000*%
G04 #@! TD*
G04 #@! TA.AperFunction,Conductor*
%ADD23C,0.381000*%
G04 #@! TD*
G04 APERTURE END LIST*
D10*
X12065000Y-17223000D03*
X12065000Y-14273000D03*
D11*
X27432000Y-13452000D03*
D12*
X27432000Y-10912000D03*
X27432000Y-8372000D03*
X27432000Y-5832000D03*
D13*
X11776000Y-8382000D03*
X11776000Y-9652000D03*
X11776000Y-10922000D03*
X11776000Y-12192000D03*
X17526000Y-12192000D03*
X17526000Y-10922000D03*
X17526000Y-9652000D03*
X17526000Y-8382000D03*
D14*
X14001000Y-8987000D03*
X14001000Y-10287000D03*
X14001000Y-11587000D03*
D15*
X14651000Y-10287000D03*
D14*
X15301000Y-8987000D03*
X15301000Y-10287000D03*
X15301000Y-11587000D03*
D11*
X2032000Y-16256000D03*
D12*
X2032000Y-13716000D03*
X2032000Y-11176000D03*
X2032000Y-8636000D03*
X2032000Y-6096000D03*
X2032000Y-3556000D03*
D16*
X19425000Y-2413000D03*
X22225000Y-2413000D03*
D17*
X20406000Y-17018000D03*
X24806000Y-17018000D03*
D18*
X19369500Y-5334000D03*
X16444500Y-5334000D03*
D19*
X8763000Y-12380500D03*
X8763000Y-15305500D03*
D20*
X12192000Y-3810000D03*
X15367000Y-3810000D03*
X24130000Y-10160000D03*
X15240000Y-13970000D03*
X19558000Y-9398000D03*
X24765000Y-9271000D03*
X26035000Y-18669000D03*
X13335000Y-4953000D03*
X21463000Y-9398000D03*
X14224000Y-13970000D03*
X28829000Y-17526000D03*
X13335000Y-3810000D03*
X23241000Y-9398000D03*
X27813000Y-18669000D03*
X26797000Y-17526000D03*
X14351000Y-4953000D03*
X14351000Y-3810000D03*
X12192000Y-4953000D03*
X15240000Y-15113000D03*
X22352000Y-10160000D03*
X20574000Y-10160000D03*
X15367000Y-4953000D03*
X14224000Y-15113000D03*
X22733000Y-4191000D03*
X21209000Y-13208000D03*
D21*
X8890000Y-9652000D02*
X7874000Y-8636000D01*
X5080000Y-8636000D02*
X2032000Y-8636000D01*
X7874000Y-8636000D02*
X5080000Y-8636000D01*
X11776000Y-9652000D02*
X8890000Y-9652000D01*
X10033000Y-10922000D02*
X9779000Y-11176000D01*
X9779000Y-11176000D02*
X2032000Y-11176000D01*
X11776000Y-10922000D02*
X10033000Y-10922000D01*
D22*
X8951500Y-12192000D02*
X8763000Y-12380500D01*
D21*
X11776000Y-12192000D02*
X8951500Y-12192000D01*
D23*
X22225000Y-3683000D02*
X22225000Y-2413000D01*
X22733000Y-4191000D02*
X22225000Y-3683000D01*
D22*
X19425000Y-5278500D02*
X19369500Y-5334000D01*
D23*
X19425000Y-2413000D02*
X19425000Y-5278500D01*
G04 #@! TA.AperFunction,Conductor*
G36*
X29413621Y-4084002D02*
G01*
X29460114Y-4137658D01*
X29471500Y-4190000D01*
X29471500Y-9272000D01*
X29451498Y-9340121D01*
X29397842Y-9386614D01*
X29345500Y-9398000D01*
X25785500Y-9398000D01*
X25717379Y-9377998D01*
X25670886Y-9324342D01*
X25659500Y-9272000D01*
X25659500Y-9016005D01*
X25659499Y-9015993D01*
X25656918Y-8991987D01*
X25653570Y-8960841D01*
X25642184Y-8908499D01*
X25634834Y-8881709D01*
X25584731Y-8793722D01*
X25584727Y-8793718D01*
X25584724Y-8793713D01*
X25538247Y-8740076D01*
X25538230Y-8740058D01*
X25504949Y-8707944D01*
X25415232Y-8661014D01*
X25415231Y-8661013D01*
X25415230Y-8661013D01*
X25347109Y-8641011D01*
X25274000Y-8630500D01*
X16514500Y-8630500D01*
X16446379Y-8610498D01*
X16399886Y-8556842D01*
X16388500Y-8504500D01*
X16388500Y-8000000D01*
X16408502Y-7931879D01*
X16462158Y-7885386D01*
X16514500Y-7874000D01*
X22351999Y-7874000D01*
X22352000Y-7874000D01*
X25616318Y-4107478D01*
X25676048Y-4069101D01*
X25711535Y-4064000D01*
X29345500Y-4064000D01*
X29413621Y-4084002D01*
G37*
G04 #@! TD.AperFunction*
G04 #@! TA.AperFunction,Conductor*
G36*
X18825972Y-11704002D02*
G01*
X18827743Y-11705162D01*
X19558000Y-12192000D01*
X22734000Y-12192000D01*
X22802121Y-12212002D01*
X22848614Y-12265658D01*
X22860000Y-12318000D01*
X22860000Y-19439500D01*
X22839998Y-19507621D01*
X22786342Y-19554114D01*
X22734000Y-19565500D01*
X2544122Y-19565500D01*
X2535881Y-19565230D01*
X2282033Y-19548592D01*
X2265693Y-19546441D01*
X2020239Y-19497617D01*
X2004319Y-19493351D01*
X1767336Y-19412906D01*
X1752109Y-19406599D01*
X1604290Y-19333703D01*
X1527653Y-19295910D01*
X1513387Y-19287673D01*
X1305297Y-19148631D01*
X1292224Y-19138601D01*
X1104058Y-18973583D01*
X1092416Y-18961941D01*
X927394Y-18773770D01*
X917369Y-18760705D01*
X778323Y-18552608D01*
X770092Y-18538351D01*
X659396Y-18313880D01*
X653093Y-18298663D01*
X600963Y-18145094D01*
X572647Y-18061677D01*
X568384Y-18045768D01*
X519556Y-17800294D01*
X517408Y-17783976D01*
X508270Y-17644547D01*
X508000Y-17636307D01*
X508000Y-12699000D01*
X528002Y-12630879D01*
X581658Y-12584386D01*
X634000Y-12573000D01*
X3864461Y-12573000D01*
X3932582Y-12593002D01*
X3973424Y-12635731D01*
X6223000Y-16510000D01*
X16510000Y-16510000D01*
X16510000Y-11810000D01*
X16530002Y-11741879D01*
X16583658Y-11695386D01*
X16636000Y-11684000D01*
X18757851Y-11684000D01*
X18825972Y-11704002D01*
G37*
G04 #@! TD.AperFunction*
G04 #@! TA.AperFunction,Conductor*
G36*
X25342121Y-8910002D02*
G01*
X25388614Y-8963658D01*
X25400000Y-9016000D01*
X25400000Y-10415000D01*
X25379998Y-10483121D01*
X25326342Y-10529614D01*
X25274000Y-10541000D01*
X18911900Y-10541000D01*
X18843779Y-10520998D01*
X18818943Y-10496601D01*
X18818256Y-10497289D01*
X18809481Y-10488513D01*
X18725302Y-10432266D01*
X18651069Y-10417500D01*
X16509000Y-10417500D01*
X16440879Y-10397498D01*
X16394386Y-10343842D01*
X16383000Y-10291500D01*
X16383000Y-9016000D01*
X16403002Y-8947879D01*
X16456658Y-8901386D01*
X16509000Y-8890000D01*
X25274000Y-8890000D01*
X25342121Y-8910002D01*
G37*
G04 #@! TD.AperFunction*
G04 #@! TA.AperFunction,Conductor*
G36*
X29413621Y-9926002D02*
G01*
X29460114Y-9979658D01*
X29471500Y-10032000D01*
X29471500Y-14854500D01*
X29451498Y-14922621D01*
X29397842Y-14969114D01*
X29345500Y-14980500D01*
X26354750Y-14980500D01*
X26286629Y-14960498D01*
X26253950Y-14930100D01*
X24730168Y-12898391D01*
X24121400Y-12086700D01*
X24091773Y-12053762D01*
X24090544Y-12052395D01*
X24090540Y-12052391D01*
X24057869Y-12022001D01*
X24057864Y-12021996D01*
X24043949Y-12009944D01*
X23954230Y-11963013D01*
X23886109Y-11943011D01*
X23813000Y-11932500D01*
X23367000Y-11932500D01*
X23366990Y-11932500D01*
X23322557Y-11937278D01*
X23309088Y-11938000D01*
X22781269Y-11938000D01*
X22763339Y-11936718D01*
X22750249Y-11934836D01*
X22734000Y-11932500D01*
X22733999Y-11932500D01*
X19674720Y-11932500D01*
X19606599Y-11912498D01*
X19604828Y-11911338D01*
X18971701Y-11489253D01*
X18969961Y-11488103D01*
X18968167Y-11486928D01*
X18968150Y-11486919D01*
X18899076Y-11455010D01*
X18830965Y-11435012D01*
X18830969Y-11435012D01*
X18791084Y-11429278D01*
X18757851Y-11424500D01*
X16636000Y-11424500D01*
X16635990Y-11424500D01*
X16591557Y-11429278D01*
X16578088Y-11430000D01*
X16514500Y-11430000D01*
X16446379Y-11409998D01*
X16399886Y-11356342D01*
X16388500Y-11304000D01*
X16388500Y-10803000D01*
X16408502Y-10734879D01*
X16462158Y-10688386D01*
X16514500Y-10677000D01*
X18581257Y-10677000D01*
X18649378Y-10697002D01*
X18665038Y-10708890D01*
X18680951Y-10723056D01*
X18770670Y-10769987D01*
X18838791Y-10789989D01*
X18911900Y-10800500D01*
X18911903Y-10800500D01*
X25273994Y-10800500D01*
X25274000Y-10800500D01*
X25329159Y-10794570D01*
X25381501Y-10783184D01*
X25408291Y-10775834D01*
X25496278Y-10725731D01*
X25549934Y-10679238D01*
X25582056Y-10645949D01*
X25628987Y-10556230D01*
X25648989Y-10488109D01*
X25659500Y-10415000D01*
X25659500Y-10032000D01*
X25679502Y-9963879D01*
X25733158Y-9917386D01*
X25785500Y-9906000D01*
X29345500Y-9906000D01*
X29413621Y-9926002D01*
G37*
G04 #@! TD.AperFunction*
G04 #@! TA.AperFunction,Conductor*
G36*
X23881121Y-12212002D02*
G01*
X23913800Y-12242400D01*
X26162000Y-15240000D01*
X29345500Y-15240000D01*
X29413621Y-15260002D01*
X29460114Y-15313658D01*
X29471500Y-15366000D01*
X29471500Y-17521878D01*
X29471230Y-17530119D01*
X29454592Y-17783966D01*
X29452441Y-17800306D01*
X29403617Y-18045760D01*
X29399351Y-18061680D01*
X29318906Y-18298663D01*
X29312599Y-18313890D01*
X29201912Y-18538342D01*
X29193671Y-18552616D01*
X29054634Y-18760699D01*
X29044601Y-18773775D01*
X28879589Y-18961935D01*
X28867935Y-18973589D01*
X28679775Y-19138601D01*
X28666699Y-19148634D01*
X28458616Y-19287671D01*
X28444342Y-19295912D01*
X28219890Y-19406599D01*
X28204663Y-19412906D01*
X27967680Y-19493351D01*
X27951760Y-19497617D01*
X27706306Y-19546441D01*
X27689966Y-19548592D01*
X27436119Y-19565230D01*
X27427878Y-19565500D01*
X23367000Y-19565500D01*
X23298879Y-19545498D01*
X23252386Y-19491842D01*
X23241000Y-19439500D01*
X23241000Y-12318000D01*
X23261002Y-12249879D01*
X23314658Y-12203386D01*
X23367000Y-12192000D01*
X23813000Y-12192000D01*
X23881121Y-12212002D01*
G37*
G04 #@! TD.AperFunction*
G04 #@! TA.AperFunction,Conductor*
G36*
X16071121Y-1798002D02*
G01*
X16117614Y-1851658D01*
X16129000Y-1904000D01*
X16129000Y-16003000D01*
X16108998Y-16071121D01*
X16055342Y-16117614D01*
X16003000Y-16129000D01*
X13881149Y-16129000D01*
X13813028Y-16108998D01*
X13811257Y-16107838D01*
X13756182Y-16071121D01*
X13081000Y-15621000D01*
X10413999Y-15621000D01*
X10197405Y-15945892D01*
X10142976Y-15991477D01*
X10092567Y-16002000D01*
X8000000Y-16002000D01*
X7931879Y-15981998D01*
X7885386Y-15928342D01*
X7874000Y-15876000D01*
X7874000Y-13313501D01*
X7894002Y-13245380D01*
X7947658Y-13198887D01*
X8017932Y-13188783D01*
X8028982Y-13190879D01*
X8029649Y-13191036D01*
X8029658Y-13191040D01*
X8089745Y-13197500D01*
X9436254Y-13197499D01*
X9496342Y-13191040D01*
X9632267Y-13140342D01*
X9677968Y-13106130D01*
X9744488Y-13081321D01*
X9753476Y-13081000D01*
X13081000Y-13081000D01*
X13081000Y-12631504D01*
X13101002Y-12563383D01*
X13102170Y-12561600D01*
X13115734Y-12541301D01*
X13130500Y-12467067D01*
X13130499Y-11916934D01*
X13130498Y-11916931D01*
X13130498Y-11916926D01*
X13125012Y-11889348D01*
X13115734Y-11842699D01*
X13115732Y-11842696D01*
X13115732Y-11842695D01*
X13102235Y-11822495D01*
X13081020Y-11754743D01*
X13081000Y-11752494D01*
X13081000Y-11361504D01*
X13101002Y-11293383D01*
X13102170Y-11291600D01*
X13115734Y-11271301D01*
X13130500Y-11197067D01*
X13130499Y-10646934D01*
X13130498Y-10646931D01*
X13130498Y-10646926D01*
X13125012Y-10619348D01*
X13115734Y-10572699D01*
X13115732Y-10572696D01*
X13115732Y-10572695D01*
X13102235Y-10552495D01*
X13081020Y-10484743D01*
X13081000Y-10482494D01*
X13081000Y-10091504D01*
X13101002Y-10023383D01*
X13102170Y-10021600D01*
X13115734Y-10001301D01*
X13130500Y-9927067D01*
X13130499Y-9376934D01*
X13130498Y-9376931D01*
X13130498Y-9376926D01*
X13125012Y-9349348D01*
X13115734Y-9302699D01*
X13115732Y-9302696D01*
X13115732Y-9302695D01*
X13102235Y-9282495D01*
X13081020Y-9214743D01*
X13081000Y-9212494D01*
X13081000Y-8763000D01*
X9458559Y-8763000D01*
X9390438Y-8742998D01*
X9360170Y-8715712D01*
X8382000Y-7493000D01*
X626500Y-7493000D01*
X558379Y-7472998D01*
X511886Y-7419342D01*
X500500Y-7367000D01*
X500500Y-2544121D01*
X500770Y-2535881D01*
X504819Y-2474108D01*
X517408Y-2282021D01*
X519556Y-2265707D01*
X568385Y-2020227D01*
X572644Y-2004330D01*
X620451Y-1863497D01*
X661289Y-1805422D01*
X727042Y-1778644D01*
X739764Y-1778000D01*
X16003000Y-1778000D01*
X16071121Y-1798002D01*
G37*
G04 #@! TD.AperFunction*
M02*
