M48
; DRILL file {KiCad 8.0.5} date 2024-10-21T19:45:30-0400
; FORMAT={-:-/ absolute / metric / decimal}
; #@! TF.CreationDate,2024-10-21T19:45:30-04:00
; #@! TF.GenerationSoftware,Kicad,Pcbnew,8.0.5
; #@! TF.FileFunction,Plated,1,2,PTH
FMAT,2
METRIC
; #@! TA.AperFunction,Plated,PTH,ViaDrill
T1C0.300
; #@! TA.AperFunction,Plated,PTH,ComponentDrill
T2C0.330
; #@! TA.AperFunction,Plated,PTH,ComponentDrill
T3C1.000
%
G90
G05
T1
X12.192Y-3.81
X12.192Y-4.953
X13.335Y-3.81
X13.335Y-4.953
X14.224Y-13.97
X14.224Y-15.113
X14.351Y-3.81
X14.351Y-4.953
X15.24Y-13.97
X15.24Y-15.113
X15.367Y-3.81
X15.367Y-4.953
X19.558Y-9.398
X20.574Y-10.16
X21.209Y-13.208
X21.463Y-9.398
X22.352Y-10.16
X22.733Y-4.191
X23.241Y-9.398
X24.13Y-10.16
X24.765Y-9.271
X26.035Y-18.669
X26.797Y-17.526
X27.813Y-18.669
X28.829Y-17.526
T2
X14.001Y-8.987
X14.001Y-10.287
X14.001Y-11.587
X15.301Y-8.987
X15.301Y-10.287
X15.301Y-11.587
T3
X2.032Y-3.556
X2.032Y-6.096
X2.032Y-8.636
X2.032Y-11.176
X2.032Y-13.716
X2.032Y-16.256
X27.432Y-5.832
X27.432Y-8.372
X27.432Y-10.912
X27.432Y-13.452
M30
