G04 #@! TF.GenerationSoftware,KiCad,Pcbnew,8.0.5*
G04 #@! TF.CreationDate,2024-10-21T19:45:19-04:00*
G04 #@! TF.ProjectId,DRV8871_PCB,44525638-3837-4315-9f50-43422e6b6963,rev?*
G04 #@! TF.SameCoordinates,Original*
G04 #@! TF.FileFunction,Paste,Top*
G04 #@! TF.FilePolarity,Positive*
%FSLAX46Y46*%
G04 Gerber Fmt 4.6, Leading zero omitted, Abs format (unit mm)*
G04 Created by KiCad (PCBNEW 8.0.5) date 2024-10-21 19:45:19*
%MOMM*%
%LPD*%
G01*
G04 APERTURE LIST*
G04 Aperture macros list*
%AMRoundRect*
0 Rectangle with rounded corners*
0 $1 Rounding radius*
0 $2 $3 $4 $5 $6 $7 $8 $9 X,Y pos of 4 corners*
0 Add a 4 corners polygon primitive as box body*
4,1,4,$2,$3,$4,$5,$6,$7,$8,$9,$2,$3,0*
0 Add four circle primitives for the rounded corners*
1,1,$1+$1,$2,$3*
1,1,$1+$1,$4,$5*
1,1,$1+$1,$6,$7*
1,1,$1+$1,$8,$9*
0 Add four rect primitives between the rounded corners*
20,1,$1+$1,$2,$3,$4,$5,0*
20,1,$1+$1,$4,$5,$6,$7,0*
20,1,$1+$1,$6,$7,$8,$9,0*
20,1,$1+$1,$8,$9,$2,$3,0*%
G04 Aperture macros list end*
%ADD10C,0.100000*%
%ADD11C,0.300000*%
%ADD12C,0.150000*%
%ADD13RoundRect,0.250000X0.650000X-0.325000X0.650000X0.325000X-0.650000X0.325000X-0.650000X-0.325000X0*%
%ADD14R,2.400000X3.100000*%
%ADD15R,2.200000X0.500000*%
%ADD16RoundRect,0.250000X-0.375000X-0.625000X0.375000X-0.625000X0.375000X0.625000X-0.375000X0.625000X0*%
%ADD17RoundRect,0.250000X-1.250000X-0.550000X1.250000X-0.550000X1.250000X0.550000X-1.250000X0.550000X0*%
%ADD18RoundRect,0.250000X0.312500X0.625000X-0.312500X0.625000X-0.312500X-0.625000X0.312500X-0.625000X0*%
%ADD19RoundRect,0.250000X-0.625000X0.312500X-0.625000X-0.312500X0.625000X-0.312500X0.625000X0.312500X0*%
G04 APERTURE END LIST*
D10*
X3810000Y-12573000D02*
X3810000Y-17399000D01*
X3810000Y-2286000D02*
X3810000Y-7239000D01*
X4318000Y-15240000D02*
X3810000Y-15240000D01*
X3810000Y-4572000D02*
X4318000Y-4572000D01*
D11*
X6244987Y-2607433D02*
X6244987Y-1210433D01*
X6244987Y-1210433D02*
X6577606Y-1210433D01*
X6577606Y-1210433D02*
X6777177Y-1276957D01*
X6777177Y-1276957D02*
X6910225Y-1410005D01*
X6910225Y-1410005D02*
X6976748Y-1543052D01*
X6976748Y-1543052D02*
X7043272Y-1809148D01*
X7043272Y-1809148D02*
X7043272Y-2008719D01*
X7043272Y-2008719D02*
X6976748Y-2274814D01*
X6976748Y-2274814D02*
X6910225Y-2407862D01*
X6910225Y-2407862D02*
X6777177Y-2540910D01*
X6777177Y-2540910D02*
X6577606Y-2607433D01*
X6577606Y-2607433D02*
X6244987Y-2607433D01*
X8440272Y-2607433D02*
X7974606Y-1942195D01*
X7641987Y-2607433D02*
X7641987Y-1210433D01*
X7641987Y-1210433D02*
X8174177Y-1210433D01*
X8174177Y-1210433D02*
X8307225Y-1276957D01*
X8307225Y-1276957D02*
X8373748Y-1343481D01*
X8373748Y-1343481D02*
X8440272Y-1476529D01*
X8440272Y-1476529D02*
X8440272Y-1676100D01*
X8440272Y-1676100D02*
X8373748Y-1809148D01*
X8373748Y-1809148D02*
X8307225Y-1875671D01*
X8307225Y-1875671D02*
X8174177Y-1942195D01*
X8174177Y-1942195D02*
X7641987Y-1942195D01*
X8839415Y-1210433D02*
X9305082Y-2607433D01*
X9305082Y-2607433D02*
X9770748Y-1210433D01*
X10435987Y-1809148D02*
X10302939Y-1742624D01*
X10302939Y-1742624D02*
X10236416Y-1676100D01*
X10236416Y-1676100D02*
X10169892Y-1543052D01*
X10169892Y-1543052D02*
X10169892Y-1476529D01*
X10169892Y-1476529D02*
X10236416Y-1343481D01*
X10236416Y-1343481D02*
X10302939Y-1276957D01*
X10302939Y-1276957D02*
X10435987Y-1210433D01*
X10435987Y-1210433D02*
X10702082Y-1210433D01*
X10702082Y-1210433D02*
X10835130Y-1276957D01*
X10835130Y-1276957D02*
X10901654Y-1343481D01*
X10901654Y-1343481D02*
X10968177Y-1476529D01*
X10968177Y-1476529D02*
X10968177Y-1543052D01*
X10968177Y-1543052D02*
X10901654Y-1676100D01*
X10901654Y-1676100D02*
X10835130Y-1742624D01*
X10835130Y-1742624D02*
X10702082Y-1809148D01*
X10702082Y-1809148D02*
X10435987Y-1809148D01*
X10435987Y-1809148D02*
X10302939Y-1875671D01*
X10302939Y-1875671D02*
X10236416Y-1942195D01*
X10236416Y-1942195D02*
X10169892Y-2075243D01*
X10169892Y-2075243D02*
X10169892Y-2341338D01*
X10169892Y-2341338D02*
X10236416Y-2474386D01*
X10236416Y-2474386D02*
X10302939Y-2540910D01*
X10302939Y-2540910D02*
X10435987Y-2607433D01*
X10435987Y-2607433D02*
X10702082Y-2607433D01*
X10702082Y-2607433D02*
X10835130Y-2540910D01*
X10835130Y-2540910D02*
X10901654Y-2474386D01*
X10901654Y-2474386D02*
X10968177Y-2341338D01*
X10968177Y-2341338D02*
X10968177Y-2075243D01*
X10968177Y-2075243D02*
X10901654Y-1942195D01*
X10901654Y-1942195D02*
X10835130Y-1875671D01*
X10835130Y-1875671D02*
X10702082Y-1809148D01*
X11766463Y-1809148D02*
X11633415Y-1742624D01*
X11633415Y-1742624D02*
X11566892Y-1676100D01*
X11566892Y-1676100D02*
X11500368Y-1543052D01*
X11500368Y-1543052D02*
X11500368Y-1476529D01*
X11500368Y-1476529D02*
X11566892Y-1343481D01*
X11566892Y-1343481D02*
X11633415Y-1276957D01*
X11633415Y-1276957D02*
X11766463Y-1210433D01*
X11766463Y-1210433D02*
X12032558Y-1210433D01*
X12032558Y-1210433D02*
X12165606Y-1276957D01*
X12165606Y-1276957D02*
X12232130Y-1343481D01*
X12232130Y-1343481D02*
X12298653Y-1476529D01*
X12298653Y-1476529D02*
X12298653Y-1543052D01*
X12298653Y-1543052D02*
X12232130Y-1676100D01*
X12232130Y-1676100D02*
X12165606Y-1742624D01*
X12165606Y-1742624D02*
X12032558Y-1809148D01*
X12032558Y-1809148D02*
X11766463Y-1809148D01*
X11766463Y-1809148D02*
X11633415Y-1875671D01*
X11633415Y-1875671D02*
X11566892Y-1942195D01*
X11566892Y-1942195D02*
X11500368Y-2075243D01*
X11500368Y-2075243D02*
X11500368Y-2341338D01*
X11500368Y-2341338D02*
X11566892Y-2474386D01*
X11566892Y-2474386D02*
X11633415Y-2540910D01*
X11633415Y-2540910D02*
X11766463Y-2607433D01*
X11766463Y-2607433D02*
X12032558Y-2607433D01*
X12032558Y-2607433D02*
X12165606Y-2540910D01*
X12165606Y-2540910D02*
X12232130Y-2474386D01*
X12232130Y-2474386D02*
X12298653Y-2341338D01*
X12298653Y-2341338D02*
X12298653Y-2075243D01*
X12298653Y-2075243D02*
X12232130Y-1942195D01*
X12232130Y-1942195D02*
X12165606Y-1875671D01*
X12165606Y-1875671D02*
X12032558Y-1809148D01*
X12764320Y-1210433D02*
X13695653Y-1210433D01*
X13695653Y-1210433D02*
X13096939Y-2607433D01*
X14959605Y-2607433D02*
X14161320Y-2607433D01*
X14560463Y-2607433D02*
X14560463Y-1210433D01*
X14560463Y-1210433D02*
X14427415Y-1410005D01*
X14427415Y-1410005D02*
X14294367Y-1543052D01*
X14294367Y-1543052D02*
X14161320Y-1609576D01*
G36*
X25304828Y-5919185D02*
G01*
X25304828Y-6205509D01*
X25271596Y-6271972D01*
X25205133Y-6305204D01*
X25133095Y-6305204D01*
X25066630Y-6271972D01*
X25033400Y-6205509D01*
X25033400Y-5890919D01*
X25290695Y-5890919D01*
X25304828Y-5919185D01*
G37*
G36*
X25771495Y-14056406D02*
G01*
X23567911Y-14056406D01*
X23567911Y-13365013D01*
X23734578Y-13365013D01*
X23738727Y-13423394D01*
X23764901Y-13475741D01*
X23809115Y-13514088D01*
X23835966Y-13526076D01*
X24907393Y-13883219D01*
X24921902Y-13886518D01*
X24925564Y-13888035D01*
X24928573Y-13888035D01*
X24936067Y-13889739D01*
X24960044Y-13888035D01*
X24984092Y-13888035D01*
X24989072Y-13885971D01*
X24994447Y-13885590D01*
X25015946Y-13874840D01*
X25038164Y-13865637D01*
X25041975Y-13861825D01*
X25046794Y-13859416D01*
X25062542Y-13841258D01*
X25079548Y-13824253D01*
X25081610Y-13819273D01*
X25085142Y-13815202D01*
X25092743Y-13792397D01*
X25101946Y-13770181D01*
X25102699Y-13762527D01*
X25103650Y-13759677D01*
X25103369Y-13755728D01*
X25104828Y-13740917D01*
X25104828Y-13176632D01*
X25454828Y-13176632D01*
X25484092Y-13173750D01*
X25538164Y-13151352D01*
X25579548Y-13109968D01*
X25601946Y-13055896D01*
X25601946Y-12997368D01*
X25579548Y-12943296D01*
X25538164Y-12901912D01*
X25484092Y-12879514D01*
X25454828Y-12876632D01*
X25104828Y-12876632D01*
X25104828Y-12812346D01*
X25101946Y-12783082D01*
X25079548Y-12729010D01*
X25038164Y-12687626D01*
X24984092Y-12665228D01*
X24925564Y-12665228D01*
X24871492Y-12687626D01*
X24830108Y-12729010D01*
X24807710Y-12783082D01*
X24804828Y-12812346D01*
X24804828Y-12876632D01*
X24454828Y-12876632D01*
X24425564Y-12879514D01*
X24371492Y-12901912D01*
X24330108Y-12943296D01*
X24307710Y-12997368D01*
X24307710Y-13055896D01*
X24330108Y-13109968D01*
X24371492Y-13151352D01*
X24425564Y-13173750D01*
X24454828Y-13176632D01*
X24804828Y-13176632D01*
X24804828Y-13532802D01*
X23930834Y-13241472D01*
X23902161Y-13234952D01*
X23843780Y-13239101D01*
X23791433Y-13265275D01*
X23753086Y-13309489D01*
X23734578Y-13365013D01*
X23567911Y-13365013D01*
X23567911Y-11526632D01*
X23804828Y-11526632D01*
X23804828Y-12240918D01*
X23805893Y-12251740D01*
X23805528Y-12255398D01*
X23806605Y-12258970D01*
X23807710Y-12270182D01*
X23816101Y-12290441D01*
X23822435Y-12311430D01*
X23827216Y-12317274D01*
X23830108Y-12324254D01*
X23845613Y-12339759D01*
X23859496Y-12356727D01*
X23866151Y-12360297D01*
X23871492Y-12365638D01*
X23891749Y-12374029D01*
X23911071Y-12384394D01*
X23922118Y-12386608D01*
X23925564Y-12388036D01*
X23929238Y-12388036D01*
X23939903Y-12390174D01*
X24654188Y-12461602D01*
X24683594Y-12461646D01*
X24690828Y-12459463D01*
X24698378Y-12459463D01*
X24718631Y-12451073D01*
X24739626Y-12444739D01*
X24745470Y-12439956D01*
X24752450Y-12437066D01*
X24767956Y-12421558D01*
X24784922Y-12407678D01*
X24788492Y-12401022D01*
X24793835Y-12395680D01*
X24802225Y-12375422D01*
X24812590Y-12356103D01*
X24813341Y-12348586D01*
X24816232Y-12341608D01*
X24816231Y-12319682D01*
X24818413Y-12297866D01*
X24816231Y-12290634D01*
X24816231Y-12283082D01*
X24807840Y-12262825D01*
X24801507Y-12241834D01*
X24796724Y-12235988D01*
X24793834Y-12229010D01*
X24775179Y-12206279D01*
X24720962Y-12152062D01*
X24676257Y-12062651D01*
X24676257Y-11776327D01*
X24720962Y-11686915D01*
X24757968Y-11649909D01*
X24847381Y-11605203D01*
X25133704Y-11605203D01*
X25223117Y-11649910D01*
X25260121Y-11686914D01*
X25304828Y-11776327D01*
X25304828Y-12062651D01*
X25260122Y-12152063D01*
X25205906Y-12206279D01*
X25187251Y-12229010D01*
X25164853Y-12283082D01*
X25164853Y-12341608D01*
X25187250Y-12395680D01*
X25228635Y-12437066D01*
X25282707Y-12459464D01*
X25341233Y-12459464D01*
X25395305Y-12437067D01*
X25418036Y-12418413D01*
X25489465Y-12346985D01*
X25498907Y-12335479D01*
X25501899Y-12332885D01*
X25504738Y-12328374D01*
X25508120Y-12324254D01*
X25509635Y-12320594D01*
X25517564Y-12308000D01*
X25588992Y-12165142D01*
X25599502Y-12137679D01*
X25599883Y-12132303D01*
X25601946Y-12127325D01*
X25604828Y-12098061D01*
X25604828Y-11740918D01*
X25601946Y-11711654D01*
X25599883Y-11706675D01*
X25599502Y-11701300D01*
X25588992Y-11673837D01*
X25517564Y-11530979D01*
X25509637Y-11518387D01*
X25508121Y-11514726D01*
X25504737Y-11510603D01*
X25501899Y-11506094D01*
X25498907Y-11503499D01*
X25489466Y-11491995D01*
X25418037Y-11420566D01*
X25406535Y-11411126D01*
X25403939Y-11408133D01*
X25399425Y-11405292D01*
X25395306Y-11401911D01*
X25391646Y-11400395D01*
X25379053Y-11392468D01*
X25236196Y-11321039D01*
X25208733Y-11310530D01*
X25203358Y-11310148D01*
X25198378Y-11308085D01*
X25169114Y-11305203D01*
X24811971Y-11305203D01*
X24782707Y-11308085D01*
X24777726Y-11310148D01*
X24772352Y-11310530D01*
X24744888Y-11321039D01*
X24602032Y-11392468D01*
X24589438Y-11400395D01*
X24585779Y-11401911D01*
X24581659Y-11405292D01*
X24577146Y-11408133D01*
X24574549Y-11411127D01*
X24563048Y-11420566D01*
X24491619Y-11491995D01*
X24482179Y-11503496D01*
X24479186Y-11506093D01*
X24476345Y-11510606D01*
X24472964Y-11514726D01*
X24471448Y-11518385D01*
X24463521Y-11530979D01*
X24392093Y-11673836D01*
X24381583Y-11701300D01*
X24381201Y-11706675D01*
X24379139Y-11711654D01*
X24376257Y-11740918D01*
X24376257Y-12098061D01*
X24379139Y-12127325D01*
X24381201Y-12132303D01*
X24381237Y-12132810D01*
X24104828Y-12105169D01*
X24104828Y-11526632D01*
X24101946Y-11497368D01*
X24079548Y-11443296D01*
X24038164Y-11401912D01*
X23984092Y-11379514D01*
X23925564Y-11379514D01*
X23871492Y-11401912D01*
X23830108Y-11443296D01*
X23807710Y-11497368D01*
X23804828Y-11526632D01*
X23567911Y-11526632D01*
X23567911Y-10007871D01*
X23806006Y-10007871D01*
X23810155Y-10066252D01*
X23836329Y-10118599D01*
X23880543Y-10156946D01*
X23907394Y-10168934D01*
X24980485Y-10526632D01*
X23907394Y-10884330D01*
X23880543Y-10896318D01*
X23836329Y-10934665D01*
X23810155Y-10987012D01*
X23806006Y-11045393D01*
X23824514Y-11100917D01*
X23862861Y-11145131D01*
X23915208Y-11171305D01*
X23973589Y-11175454D01*
X24002262Y-11168934D01*
X25502262Y-10668934D01*
X25529113Y-10656946D01*
X25537210Y-10649923D01*
X25546795Y-10645131D01*
X25559116Y-10630924D01*
X25573328Y-10618599D01*
X25578121Y-10609011D01*
X25585142Y-10600917D01*
X25591090Y-10583072D01*
X25599501Y-10566251D01*
X25600260Y-10555563D01*
X25603651Y-10545393D01*
X25602317Y-10526632D01*
X25603651Y-10507871D01*
X25600260Y-10497700D01*
X25599501Y-10487013D01*
X25591090Y-10470191D01*
X25585142Y-10452347D01*
X25578121Y-10444252D01*
X25573328Y-10434665D01*
X25559116Y-10422339D01*
X25546795Y-10408133D01*
X25537210Y-10403340D01*
X25529113Y-10396318D01*
X25502262Y-10384330D01*
X24002262Y-9884330D01*
X23973589Y-9877810D01*
X23915208Y-9881959D01*
X23862861Y-9908133D01*
X23824514Y-9952347D01*
X23806006Y-10007871D01*
X23567911Y-10007871D01*
X23567911Y-7312347D01*
X24304828Y-7312347D01*
X24304828Y-7526633D01*
X24307710Y-7555897D01*
X24309773Y-7560877D01*
X24310155Y-7566252D01*
X24320664Y-7593715D01*
X24392093Y-7736572D01*
X24394828Y-7740918D01*
X24392093Y-7745265D01*
X24320664Y-7888122D01*
X24310155Y-7915585D01*
X24309773Y-7920959D01*
X24307710Y-7925940D01*
X24304828Y-7955204D01*
X24304828Y-8169490D01*
X24307710Y-8198754D01*
X24309773Y-8203734D01*
X24310155Y-8209109D01*
X24320664Y-8236572D01*
X24345101Y-8285446D01*
X24330108Y-8300440D01*
X24307710Y-8354512D01*
X24307710Y-8413040D01*
X24330108Y-8467112D01*
X24371492Y-8508496D01*
X24425564Y-8530894D01*
X24454828Y-8533776D01*
X25454828Y-8533776D01*
X25484092Y-8530894D01*
X25538164Y-8508496D01*
X25579548Y-8467112D01*
X25601946Y-8413040D01*
X25601946Y-8354512D01*
X25579548Y-8300440D01*
X25538164Y-8259056D01*
X25484092Y-8236658D01*
X25454828Y-8233776D01*
X24659818Y-8233776D01*
X24649535Y-8223494D01*
X24604828Y-8134079D01*
X24604828Y-7990614D01*
X24638060Y-7924150D01*
X24704524Y-7890919D01*
X25454828Y-7890919D01*
X25484092Y-7888037D01*
X25538164Y-7865639D01*
X25579548Y-7824255D01*
X25601946Y-7770183D01*
X25601946Y-7711655D01*
X25579548Y-7657583D01*
X25538164Y-7616199D01*
X25484092Y-7593801D01*
X25454828Y-7590919D01*
X24704524Y-7590919D01*
X24638060Y-7557687D01*
X24604828Y-7491222D01*
X24604828Y-7347757D01*
X24638060Y-7281292D01*
X24704524Y-7248061D01*
X25454828Y-7248061D01*
X25484092Y-7245179D01*
X25538164Y-7222781D01*
X25579548Y-7181397D01*
X25601946Y-7127325D01*
X25601946Y-7068797D01*
X25579548Y-7014725D01*
X25538164Y-6973341D01*
X25484092Y-6950943D01*
X25454828Y-6948061D01*
X24669114Y-6948061D01*
X24639850Y-6950943D01*
X24634869Y-6953006D01*
X24629495Y-6953388D01*
X24602031Y-6963897D01*
X24459175Y-7035326D01*
X24454280Y-7038406D01*
X24451973Y-7039176D01*
X24449098Y-7041668D01*
X24434289Y-7050991D01*
X24421965Y-7065200D01*
X24407758Y-7077522D01*
X24398438Y-7092327D01*
X24395942Y-7095206D01*
X24395171Y-7097517D01*
X24392093Y-7102408D01*
X24320664Y-7245265D01*
X24310155Y-7272728D01*
X24309773Y-7278102D01*
X24307710Y-7283083D01*
X24304828Y-7312347D01*
X23567911Y-7312347D01*
X23567911Y-5955204D01*
X24304828Y-5955204D01*
X24304828Y-6240919D01*
X24307710Y-6270183D01*
X24309773Y-6275163D01*
X24310155Y-6280538D01*
X24320664Y-6308001D01*
X24392093Y-6450858D01*
X24407758Y-6475744D01*
X24451973Y-6514090D01*
X24507496Y-6532598D01*
X24565876Y-6528449D01*
X24618225Y-6502275D01*
X24656572Y-6458059D01*
X24675079Y-6402537D01*
X24670930Y-6344157D01*
X24660421Y-6316693D01*
X24604828Y-6205508D01*
X24604828Y-5990614D01*
X24638060Y-5924150D01*
X24704524Y-5890919D01*
X24719266Y-5890919D01*
X24733400Y-5919186D01*
X24733400Y-6240919D01*
X24736282Y-6270183D01*
X24738344Y-6275161D01*
X24738726Y-6280537D01*
X24749236Y-6308001D01*
X24820664Y-6450858D01*
X24823744Y-6455752D01*
X24824514Y-6458060D01*
X24827006Y-6460933D01*
X24836329Y-6475744D01*
X24850540Y-6488068D01*
X24862861Y-6502275D01*
X24877668Y-6511596D01*
X24880544Y-6514090D01*
X24882852Y-6514859D01*
X24887746Y-6517940D01*
X25030604Y-6589368D01*
X25058067Y-6599878D01*
X25063442Y-6600259D01*
X25068421Y-6602322D01*
X25097685Y-6605204D01*
X25240542Y-6605204D01*
X25269806Y-6602322D01*
X25274784Y-6600259D01*
X25280160Y-6599878D01*
X25307623Y-6589368D01*
X25450482Y-6517940D01*
X25455375Y-6514859D01*
X25457684Y-6514090D01*
X25460558Y-6511596D01*
X25475367Y-6502275D01*
X25487691Y-6488065D01*
X25501899Y-6475743D01*
X25511218Y-6460938D01*
X25513714Y-6458061D01*
X25514484Y-6455750D01*
X25517564Y-6450858D01*
X25588992Y-6308000D01*
X25599502Y-6280537D01*
X25599883Y-6275161D01*
X25601946Y-6270183D01*
X25604828Y-6240919D01*
X25604828Y-5883776D01*
X25601946Y-5854512D01*
X25599883Y-5849533D01*
X25599502Y-5844158D01*
X25588992Y-5816695D01*
X25585539Y-5809790D01*
X25601946Y-5770183D01*
X25601946Y-5711655D01*
X25579548Y-5657583D01*
X25538164Y-5616199D01*
X25484092Y-5593801D01*
X25454828Y-5590919D01*
X24669114Y-5590919D01*
X24639850Y-5593801D01*
X24634871Y-5595863D01*
X24629496Y-5596245D01*
X24602033Y-5606755D01*
X24459175Y-5678183D01*
X24454281Y-5681263D01*
X24451973Y-5682033D01*
X24449097Y-5684526D01*
X24434290Y-5693848D01*
X24421969Y-5708054D01*
X24407758Y-5720379D01*
X24398435Y-5735189D01*
X24395943Y-5738063D01*
X24395173Y-5740370D01*
X24392093Y-5745265D01*
X24320664Y-5888122D01*
X24310155Y-5915585D01*
X24309773Y-5920959D01*
X24307710Y-5925940D01*
X24304828Y-5955204D01*
X23567911Y-5955204D01*
X23567911Y-4372250D01*
X24305272Y-4372250D01*
X24312245Y-4430359D01*
X24340925Y-4481378D01*
X24362155Y-4501724D01*
X24712038Y-4776633D01*
X24362155Y-5051542D01*
X24340925Y-5071888D01*
X24312245Y-5122907D01*
X24305272Y-5181016D01*
X24321066Y-5237372D01*
X24357226Y-5283393D01*
X24408245Y-5312073D01*
X24466354Y-5319046D01*
X24522710Y-5303252D01*
X24547501Y-5287438D01*
X24954827Y-4967395D01*
X25362154Y-5287438D01*
X25386946Y-5303251D01*
X25443302Y-5319046D01*
X25501411Y-5312073D01*
X25552429Y-5283393D01*
X25588589Y-5237372D01*
X25604384Y-5181016D01*
X25597411Y-5122907D01*
X25568731Y-5071888D01*
X25547501Y-5051542D01*
X25197616Y-4776633D01*
X25547501Y-4501724D01*
X25568731Y-4481378D01*
X25597411Y-4430359D01*
X25604384Y-4372250D01*
X25588589Y-4315894D01*
X25552429Y-4269873D01*
X25501411Y-4241193D01*
X25443302Y-4234220D01*
X25386946Y-4250015D01*
X25362154Y-4265828D01*
X24954827Y-4585870D01*
X24547501Y-4265828D01*
X24522710Y-4250014D01*
X24466354Y-4234220D01*
X24408245Y-4241193D01*
X24357226Y-4269873D01*
X24321066Y-4315894D01*
X24305272Y-4372250D01*
X23567911Y-4372250D01*
X23567911Y-4067553D01*
X25771495Y-4067553D01*
X25771495Y-14056406D01*
G37*
D12*
X4019779Y-9140819D02*
X4019779Y-8140819D01*
X4495969Y-9140819D02*
X4495969Y-8140819D01*
X4495969Y-8140819D02*
X5067397Y-9140819D01*
X5067397Y-9140819D02*
X5067397Y-8140819D01*
X5495969Y-8236057D02*
X5543588Y-8188438D01*
X5543588Y-8188438D02*
X5638826Y-8140819D01*
X5638826Y-8140819D02*
X5876921Y-8140819D01*
X5876921Y-8140819D02*
X5972159Y-8188438D01*
X5972159Y-8188438D02*
X6019778Y-8236057D01*
X6019778Y-8236057D02*
X6067397Y-8331295D01*
X6067397Y-8331295D02*
X6067397Y-8426533D01*
X6067397Y-8426533D02*
X6019778Y-8569390D01*
X6019778Y-8569390D02*
X5448350Y-9140819D01*
X5448350Y-9140819D02*
X6067397Y-9140819D01*
D11*
G36*
X7487867Y-16245318D02*
G01*
X4215736Y-16245318D01*
X4215736Y-14448589D01*
X4382403Y-14448589D01*
X4388923Y-14477262D01*
X4888923Y-15977262D01*
X4900911Y-16004113D01*
X4907933Y-16012210D01*
X4912726Y-16021795D01*
X4926932Y-16034116D01*
X4939258Y-16048328D01*
X4948845Y-16053121D01*
X4956940Y-16060142D01*
X4974782Y-16066089D01*
X4991606Y-16074501D01*
X5002296Y-16075260D01*
X5012464Y-16078650D01*
X5031220Y-16077317D01*
X5049986Y-16078651D01*
X5060156Y-16075260D01*
X5070845Y-16074501D01*
X5087666Y-16066090D01*
X5105510Y-16060142D01*
X5113606Y-16053119D01*
X5123192Y-16048327D01*
X5135515Y-16034118D01*
X5149724Y-16021795D01*
X5154516Y-16012209D01*
X5161539Y-16004113D01*
X5173527Y-15977262D01*
X5389569Y-15329136D01*
X5884106Y-15329136D01*
X5884106Y-15387664D01*
X5906504Y-15441736D01*
X5947888Y-15483120D01*
X6001960Y-15505518D01*
X6031224Y-15508400D01*
X6452653Y-15508400D01*
X6452653Y-15929828D01*
X6455535Y-15959092D01*
X6477933Y-16013164D01*
X6519317Y-16054548D01*
X6573389Y-16076946D01*
X6631917Y-16076946D01*
X6685989Y-16054548D01*
X6727373Y-16013164D01*
X6749771Y-15959092D01*
X6752653Y-15929828D01*
X6752653Y-15508400D01*
X7174082Y-15508400D01*
X7203346Y-15505518D01*
X7257418Y-15483120D01*
X7298802Y-15441736D01*
X7321200Y-15387664D01*
X7321200Y-15329136D01*
X7298802Y-15275064D01*
X7257418Y-15233680D01*
X7203346Y-15211282D01*
X7174082Y-15208400D01*
X6752653Y-15208400D01*
X6752653Y-14786971D01*
X6749771Y-14757707D01*
X6727373Y-14703635D01*
X6685989Y-14662251D01*
X6631917Y-14639853D01*
X6573389Y-14639853D01*
X6519317Y-14662251D01*
X6477933Y-14703635D01*
X6455535Y-14757707D01*
X6452653Y-14786971D01*
X6452653Y-15208400D01*
X6031224Y-15208400D01*
X6001960Y-15211282D01*
X5947888Y-15233680D01*
X5906504Y-15275064D01*
X5884106Y-15329136D01*
X5389569Y-15329136D01*
X5673528Y-14477262D01*
X5680048Y-14448588D01*
X5675898Y-14390208D01*
X5649724Y-14337861D01*
X5605510Y-14299514D01*
X5549986Y-14281005D01*
X5491606Y-14285155D01*
X5439258Y-14311328D01*
X5400911Y-14355543D01*
X5388923Y-14382394D01*
X5031225Y-15455486D01*
X4673527Y-14382394D01*
X4661539Y-14355543D01*
X4623192Y-14311329D01*
X4570845Y-14285155D01*
X4512464Y-14281006D01*
X4456940Y-14299514D01*
X4412726Y-14337861D01*
X4386552Y-14390208D01*
X4382403Y-14448589D01*
X4215736Y-14448589D01*
X4215736Y-14114338D01*
X7487867Y-14114338D01*
X7487867Y-16245318D01*
G37*
G36*
X8180340Y-4091361D02*
G01*
X8280947Y-4191968D01*
X8334126Y-4298327D01*
X8397082Y-4550148D01*
X8397082Y-4727507D01*
X8334126Y-4979328D01*
X8280947Y-5085688D01*
X8180341Y-5186294D01*
X8022739Y-5238828D01*
X7839939Y-5238828D01*
X7839939Y-4038828D01*
X8022742Y-4038828D01*
X8180340Y-4091361D01*
G37*
G36*
X8863749Y-5705495D02*
G01*
X4230415Y-5705495D01*
X4230415Y-4531685D01*
X4397082Y-4531685D01*
X4397082Y-4745971D01*
X4397584Y-4751074D01*
X4397259Y-4753262D01*
X4398878Y-4764212D01*
X4399964Y-4775235D01*
X4400811Y-4777279D01*
X4401561Y-4782351D01*
X4472989Y-5068065D01*
X4473760Y-5070223D01*
X4473837Y-5071304D01*
X4478495Y-5083478D01*
X4482882Y-5095756D01*
X4483526Y-5096626D01*
X4484346Y-5098767D01*
X4555775Y-5241624D01*
X4563702Y-5254217D01*
X4565218Y-5257877D01*
X4568599Y-5261996D01*
X4571440Y-5266510D01*
X4574433Y-5269106D01*
X4583873Y-5280608D01*
X4726730Y-5423466D01*
X4749460Y-5442121D01*
X4754439Y-5444183D01*
X4758511Y-5447715D01*
X4785362Y-5459703D01*
X4999648Y-5531131D01*
X5014160Y-5534430D01*
X5017818Y-5535946D01*
X5023120Y-5536468D01*
X5028322Y-5537651D01*
X5032276Y-5537369D01*
X5047082Y-5538828D01*
X5189939Y-5538828D01*
X5204744Y-5537369D01*
X5208699Y-5537651D01*
X5213900Y-5536468D01*
X5219203Y-5535946D01*
X5222860Y-5534430D01*
X5237373Y-5531131D01*
X5451659Y-5459703D01*
X5478510Y-5447715D01*
X5482583Y-5444181D01*
X5487561Y-5442120D01*
X5510292Y-5423465D01*
X5581720Y-5352036D01*
X5600374Y-5329306D01*
X5620545Y-5280608D01*
X5622771Y-5275235D01*
X5625653Y-5245971D01*
X5625653Y-4745971D01*
X5622771Y-4716707D01*
X5600373Y-4662635D01*
X5558989Y-4621251D01*
X5504917Y-4598853D01*
X5475653Y-4595971D01*
X5189939Y-4595971D01*
X5160675Y-4598853D01*
X5106603Y-4621251D01*
X5065219Y-4662635D01*
X5042821Y-4716707D01*
X5042821Y-4775235D01*
X5065219Y-4829307D01*
X5106603Y-4870691D01*
X5160675Y-4893089D01*
X5189939Y-4895971D01*
X5325653Y-4895971D01*
X5325653Y-5183839D01*
X5323198Y-5186294D01*
X5165596Y-5238828D01*
X5071425Y-5238828D01*
X4913822Y-5186294D01*
X4813217Y-5085688D01*
X4760036Y-4979328D01*
X4697082Y-4727507D01*
X4697082Y-4550148D01*
X4760036Y-4298327D01*
X4813217Y-4191967D01*
X4913823Y-4091361D01*
X5071425Y-4038828D01*
X5225958Y-4038828D01*
X5337142Y-4094421D01*
X5364606Y-4104930D01*
X5422986Y-4109079D01*
X5478508Y-4090572D01*
X5522724Y-4052225D01*
X5548898Y-3999876D01*
X5553047Y-3941496D01*
X5535491Y-3888828D01*
X5968510Y-3888828D01*
X5968510Y-5388828D01*
X5971392Y-5418092D01*
X5993790Y-5472164D01*
X6035174Y-5513548D01*
X6089246Y-5535946D01*
X6147774Y-5535946D01*
X6201846Y-5513548D01*
X6243230Y-5472164D01*
X6265628Y-5418092D01*
X6268510Y-5388828D01*
X6268510Y-4453661D01*
X6845417Y-5463249D01*
X6849794Y-5469416D01*
X6850933Y-5472164D01*
X6853732Y-5474963D01*
X6862438Y-5487227D01*
X6878211Y-5499442D01*
X6892317Y-5513548D01*
X6901150Y-5517206D01*
X6908712Y-5523063D01*
X6927960Y-5528312D01*
X6946389Y-5535946D01*
X6955951Y-5535946D01*
X6965176Y-5538462D01*
X6984967Y-5535946D01*
X7004917Y-5535946D01*
X7013750Y-5532286D01*
X7023236Y-5531081D01*
X7040558Y-5521182D01*
X7058989Y-5513548D01*
X7065749Y-5506787D01*
X7074052Y-5502043D01*
X7086265Y-5486271D01*
X7100373Y-5472164D01*
X7104032Y-5463328D01*
X7109887Y-5455769D01*
X7115135Y-5436524D01*
X7122771Y-5418092D01*
X7124244Y-5403127D01*
X7125287Y-5399306D01*
X7124911Y-5396354D01*
X7125653Y-5388828D01*
X7125653Y-3888828D01*
X7539939Y-3888828D01*
X7539939Y-5388828D01*
X7542821Y-5418092D01*
X7565219Y-5472164D01*
X7606603Y-5513548D01*
X7660675Y-5535946D01*
X7689939Y-5538828D01*
X8047082Y-5538828D01*
X8061887Y-5537369D01*
X8065842Y-5537651D01*
X8071043Y-5536468D01*
X8076346Y-5535946D01*
X8080003Y-5534430D01*
X8094516Y-5531131D01*
X8308802Y-5459703D01*
X8335653Y-5447715D01*
X8339724Y-5444183D01*
X8344704Y-5442121D01*
X8367434Y-5423466D01*
X8510291Y-5280608D01*
X8519729Y-5269106D01*
X8522724Y-5266510D01*
X8525564Y-5261996D01*
X8528946Y-5257877D01*
X8530461Y-5254217D01*
X8538389Y-5241624D01*
X8609818Y-5098768D01*
X8610637Y-5096625D01*
X8611282Y-5095756D01*
X8615666Y-5083484D01*
X8620327Y-5071304D01*
X8620403Y-5070223D01*
X8621175Y-5068065D01*
X8692603Y-4782351D01*
X8693352Y-4777279D01*
X8694200Y-4775235D01*
X8695285Y-4764212D01*
X8696905Y-4753262D01*
X8696579Y-4751074D01*
X8697082Y-4745971D01*
X8697082Y-4531685D01*
X8696579Y-4526581D01*
X8696905Y-4524394D01*
X8695285Y-4513443D01*
X8694200Y-4502421D01*
X8693352Y-4500376D01*
X8692603Y-4495305D01*
X8621175Y-4209591D01*
X8620403Y-4207432D01*
X8620327Y-4206352D01*
X8615666Y-4194171D01*
X8611282Y-4181900D01*
X8610637Y-4181030D01*
X8609818Y-4178888D01*
X8538389Y-4036032D01*
X8530462Y-4023440D01*
X8528946Y-4019778D01*
X8525562Y-4015655D01*
X8522724Y-4011146D01*
X8519731Y-4008550D01*
X8510291Y-3997048D01*
X8367434Y-3854191D01*
X8344703Y-3835536D01*
X8339723Y-3833473D01*
X8335653Y-3829943D01*
X8308802Y-3817954D01*
X8094516Y-3746526D01*
X8080008Y-3743227D01*
X8076346Y-3741710D01*
X8071037Y-3741187D01*
X8065843Y-3740006D01*
X8061893Y-3740286D01*
X8047082Y-3738828D01*
X7689939Y-3738828D01*
X7660675Y-3741710D01*
X7606603Y-3764108D01*
X7565219Y-3805492D01*
X7542821Y-3859564D01*
X7539939Y-3888828D01*
X7125653Y-3888828D01*
X7122771Y-3859564D01*
X7100373Y-3805492D01*
X7058989Y-3764108D01*
X7004917Y-3741710D01*
X6946389Y-3741710D01*
X6892317Y-3764108D01*
X6850933Y-3805492D01*
X6828535Y-3859564D01*
X6825653Y-3888828D01*
X6825653Y-4823992D01*
X6248746Y-3814407D01*
X6244368Y-3808239D01*
X6243230Y-3805492D01*
X6240430Y-3802692D01*
X6231725Y-3790429D01*
X6215953Y-3778215D01*
X6201846Y-3764108D01*
X6193010Y-3760448D01*
X6185451Y-3754594D01*
X6166206Y-3749345D01*
X6147774Y-3741710D01*
X6138212Y-3741710D01*
X6128987Y-3739194D01*
X6109196Y-3741710D01*
X6089246Y-3741710D01*
X6080412Y-3745369D01*
X6070927Y-3746575D01*
X6053604Y-3756473D01*
X6035174Y-3764108D01*
X6028413Y-3770868D01*
X6020111Y-3775613D01*
X6007897Y-3791384D01*
X5993790Y-3805492D01*
X5990130Y-3814327D01*
X5984276Y-3821887D01*
X5979027Y-3841131D01*
X5971392Y-3859564D01*
X5969918Y-3874530D01*
X5968876Y-3878351D01*
X5969251Y-3881302D01*
X5968510Y-3888828D01*
X5535491Y-3888828D01*
X5534539Y-3885973D01*
X5496193Y-3841758D01*
X5471307Y-3826093D01*
X5328450Y-3754664D01*
X5300987Y-3744155D01*
X5295612Y-3743773D01*
X5290632Y-3741710D01*
X5261368Y-3738828D01*
X5047082Y-3738828D01*
X5032270Y-3740286D01*
X5028321Y-3740006D01*
X5023126Y-3741187D01*
X5017818Y-3741710D01*
X5014156Y-3743226D01*
X4999647Y-3746526D01*
X4785362Y-3817955D01*
X4758511Y-3829943D01*
X4754441Y-3833472D01*
X4749460Y-3835536D01*
X4726730Y-3854191D01*
X4583873Y-3997048D01*
X4574433Y-4008549D01*
X4571440Y-4011146D01*
X4568599Y-4015659D01*
X4565218Y-4019779D01*
X4563702Y-4023438D01*
X4555775Y-4036032D01*
X4484346Y-4178889D01*
X4483526Y-4181029D01*
X4482882Y-4181900D01*
X4478495Y-4194177D01*
X4473837Y-4206352D01*
X4473760Y-4207432D01*
X4472989Y-4209591D01*
X4401561Y-4495305D01*
X4400811Y-4500376D01*
X4399964Y-4502421D01*
X4398878Y-4513443D01*
X4397259Y-4524394D01*
X4397584Y-4526581D01*
X4397082Y-4531685D01*
X4230415Y-4531685D01*
X4230415Y-3572161D01*
X8863749Y-3572161D01*
X8863749Y-5705495D01*
G37*
D12*
X4019779Y-11553819D02*
X4019779Y-10553819D01*
X4495969Y-11553819D02*
X4495969Y-10553819D01*
X4495969Y-10553819D02*
X5067397Y-11553819D01*
X5067397Y-11553819D02*
X5067397Y-10553819D01*
X6067397Y-11553819D02*
X5495969Y-11553819D01*
X5781683Y-11553819D02*
X5781683Y-10553819D01*
X5781683Y-10553819D02*
X5686445Y-10696676D01*
X5686445Y-10696676D02*
X5591207Y-10791914D01*
X5591207Y-10791914D02*
X5495969Y-10839533D01*
D13*
X12065000Y-17223000D03*
X12065000Y-14273000D03*
D14*
X14651000Y-10287000D03*
D15*
X11776000Y-8382000D03*
X11776000Y-9652000D03*
X11776000Y-10922000D03*
X11776000Y-12192000D03*
X17526000Y-12192000D03*
X17526000Y-10922000D03*
X17526000Y-9652000D03*
X17526000Y-8382000D03*
D16*
X19425000Y-2413000D03*
X22225000Y-2413000D03*
D17*
X20406000Y-17018000D03*
X24806000Y-17018000D03*
D18*
X19369500Y-5334000D03*
X16444500Y-5334000D03*
D19*
X8763000Y-12380500D03*
X8763000Y-15305500D03*
M02*
