G04 #@! TF.GenerationSoftware,KiCad,Pcbnew,8.0.5*
G04 #@! TF.CreationDate,2024-10-21T19:45:19-04:00*
G04 #@! TF.ProjectId,DRV8871_PCB,44525638-3837-4315-9f50-43422e6b6963,rev?*
G04 #@! TF.SameCoordinates,Original*
G04 #@! TF.FileFunction,Legend,Top*
G04 #@! TF.FilePolarity,Positive*
%FSLAX46Y46*%
G04 Gerber Fmt 4.6, Leading zero omitted, Abs format (unit mm)*
G04 Created by KiCad (PCBNEW 8.0.5) date 2024-10-21 19:45:19*
%MOMM*%
%LPD*%
G01*
G04 APERTURE LIST*
G04 Aperture macros list*
%AMRoundRect*
0 Rectangle with rounded corners*
0 $1 Rounding radius*
0 $2 $3 $4 $5 $6 $7 $8 $9 X,Y pos of 4 corners*
0 Add a 4 corners polygon primitive as box body*
4,1,4,$2,$3,$4,$5,$6,$7,$8,$9,$2,$3,0*
0 Add four circle primitives for the rounded corners*
1,1,$1+$1,$2,$3*
1,1,$1+$1,$4,$5*
1,1,$1+$1,$6,$7*
1,1,$1+$1,$8,$9*
0 Add four rect primitives between the rounded corners*
20,1,$1+$1,$2,$3,$4,$5,0*
20,1,$1+$1,$4,$5,$6,$7,0*
20,1,$1+$1,$6,$7,$8,$9,0*
20,1,$1+$1,$8,$9,$2,$3,0*%
G04 Aperture macros list end*
%ADD10C,0.150000*%
%ADD11C,0.120000*%
%ADD12RoundRect,0.250000X0.650000X-0.325000X0.650000X0.325000X-0.650000X0.325000X-0.650000X-0.325000X0*%
%ADD13R,1.700000X1.700000*%
%ADD14O,1.700000X1.700000*%
%ADD15R,2.400000X3.100000*%
%ADD16RoundRect,0.070000X-1.100000X-0.250000X1.100000X-0.250000X1.100000X0.250000X-1.100000X0.250000X0*%
%ADD17C,0.770000*%
%ADD18RoundRect,0.250000X-0.375000X-0.625000X0.375000X-0.625000X0.375000X0.625000X-0.375000X0.625000X0*%
%ADD19RoundRect,0.250000X-1.250000X-0.550000X1.250000X-0.550000X1.250000X0.550000X-1.250000X0.550000X0*%
%ADD20RoundRect,0.250000X0.312500X0.625000X-0.312500X0.625000X-0.312500X-0.625000X0.312500X-0.625000X0*%
%ADD21RoundRect,0.250000X-0.625000X0.312500X-0.625000X-0.312500X0.625000X-0.312500X0.625000X0.312500X0*%
G04 APERTURE END LIST*
D10*
X11898333Y-19155580D02*
X11850714Y-19203200D01*
X11850714Y-19203200D02*
X11707857Y-19250819D01*
X11707857Y-19250819D02*
X11612619Y-19250819D01*
X11612619Y-19250819D02*
X11469762Y-19203200D01*
X11469762Y-19203200D02*
X11374524Y-19107961D01*
X11374524Y-19107961D02*
X11326905Y-19012723D01*
X11326905Y-19012723D02*
X11279286Y-18822247D01*
X11279286Y-18822247D02*
X11279286Y-18679390D01*
X11279286Y-18679390D02*
X11326905Y-18488914D01*
X11326905Y-18488914D02*
X11374524Y-18393676D01*
X11374524Y-18393676D02*
X11469762Y-18298438D01*
X11469762Y-18298438D02*
X11612619Y-18250819D01*
X11612619Y-18250819D02*
X11707857Y-18250819D01*
X11707857Y-18250819D02*
X11850714Y-18298438D01*
X11850714Y-18298438D02*
X11898333Y-18346057D01*
X12279286Y-18346057D02*
X12326905Y-18298438D01*
X12326905Y-18298438D02*
X12422143Y-18250819D01*
X12422143Y-18250819D02*
X12660238Y-18250819D01*
X12660238Y-18250819D02*
X12755476Y-18298438D01*
X12755476Y-18298438D02*
X12803095Y-18346057D01*
X12803095Y-18346057D02*
X12850714Y-18441295D01*
X12850714Y-18441295D02*
X12850714Y-18536533D01*
X12850714Y-18536533D02*
X12803095Y-18679390D01*
X12803095Y-18679390D02*
X12231667Y-19250819D01*
X12231667Y-19250819D02*
X12850714Y-19250819D01*
X13889095Y-6241819D02*
X13889095Y-7051342D01*
X13889095Y-7051342D02*
X13936714Y-7146580D01*
X13936714Y-7146580D02*
X13984333Y-7194200D01*
X13984333Y-7194200D02*
X14079571Y-7241819D01*
X14079571Y-7241819D02*
X14270047Y-7241819D01*
X14270047Y-7241819D02*
X14365285Y-7194200D01*
X14365285Y-7194200D02*
X14412904Y-7146580D01*
X14412904Y-7146580D02*
X14460523Y-7051342D01*
X14460523Y-7051342D02*
X14460523Y-6241819D01*
X15460523Y-7241819D02*
X14889095Y-7241819D01*
X15174809Y-7241819D02*
X15174809Y-6241819D01*
X15174809Y-6241819D02*
X15079571Y-6384676D01*
X15079571Y-6384676D02*
X14984333Y-6479914D01*
X14984333Y-6479914D02*
X14889095Y-6527533D01*
X16533905Y-2867819D02*
X16533905Y-1867819D01*
X16533905Y-1867819D02*
X16772000Y-1867819D01*
X16772000Y-1867819D02*
X16914857Y-1915438D01*
X16914857Y-1915438D02*
X17010095Y-2010676D01*
X17010095Y-2010676D02*
X17057714Y-2105914D01*
X17057714Y-2105914D02*
X17105333Y-2296390D01*
X17105333Y-2296390D02*
X17105333Y-2439247D01*
X17105333Y-2439247D02*
X17057714Y-2629723D01*
X17057714Y-2629723D02*
X17010095Y-2724961D01*
X17010095Y-2724961D02*
X16914857Y-2820200D01*
X16914857Y-2820200D02*
X16772000Y-2867819D01*
X16772000Y-2867819D02*
X16533905Y-2867819D01*
X17486286Y-1963057D02*
X17533905Y-1915438D01*
X17533905Y-1915438D02*
X17629143Y-1867819D01*
X17629143Y-1867819D02*
X17867238Y-1867819D01*
X17867238Y-1867819D02*
X17962476Y-1915438D01*
X17962476Y-1915438D02*
X18010095Y-1963057D01*
X18010095Y-1963057D02*
X18057714Y-2058295D01*
X18057714Y-2058295D02*
X18057714Y-2153533D01*
X18057714Y-2153533D02*
X18010095Y-2296390D01*
X18010095Y-2296390D02*
X17438667Y-2867819D01*
X17438667Y-2867819D02*
X18057714Y-2867819D01*
X17359333Y-17377580D02*
X17311714Y-17425200D01*
X17311714Y-17425200D02*
X17168857Y-17472819D01*
X17168857Y-17472819D02*
X17073619Y-17472819D01*
X17073619Y-17472819D02*
X16930762Y-17425200D01*
X16930762Y-17425200D02*
X16835524Y-17329961D01*
X16835524Y-17329961D02*
X16787905Y-17234723D01*
X16787905Y-17234723D02*
X16740286Y-17044247D01*
X16740286Y-17044247D02*
X16740286Y-16901390D01*
X16740286Y-16901390D02*
X16787905Y-16710914D01*
X16787905Y-16710914D02*
X16835524Y-16615676D01*
X16835524Y-16615676D02*
X16930762Y-16520438D01*
X16930762Y-16520438D02*
X17073619Y-16472819D01*
X17073619Y-16472819D02*
X17168857Y-16472819D01*
X17168857Y-16472819D02*
X17311714Y-16520438D01*
X17311714Y-16520438D02*
X17359333Y-16568057D01*
X18311714Y-17472819D02*
X17740286Y-17472819D01*
X18026000Y-17472819D02*
X18026000Y-16472819D01*
X18026000Y-16472819D02*
X17930762Y-16615676D01*
X17930762Y-16615676D02*
X17835524Y-16710914D01*
X17835524Y-16710914D02*
X17740286Y-16758533D01*
X21042333Y-6042819D02*
X20709000Y-5566628D01*
X20470905Y-6042819D02*
X20470905Y-5042819D01*
X20470905Y-5042819D02*
X20851857Y-5042819D01*
X20851857Y-5042819D02*
X20947095Y-5090438D01*
X20947095Y-5090438D02*
X20994714Y-5138057D01*
X20994714Y-5138057D02*
X21042333Y-5233295D01*
X21042333Y-5233295D02*
X21042333Y-5376152D01*
X21042333Y-5376152D02*
X20994714Y-5471390D01*
X20994714Y-5471390D02*
X20947095Y-5519009D01*
X20947095Y-5519009D02*
X20851857Y-5566628D01*
X20851857Y-5566628D02*
X20470905Y-5566628D01*
X21375667Y-5042819D02*
X21994714Y-5042819D01*
X21994714Y-5042819D02*
X21661381Y-5423771D01*
X21661381Y-5423771D02*
X21804238Y-5423771D01*
X21804238Y-5423771D02*
X21899476Y-5471390D01*
X21899476Y-5471390D02*
X21947095Y-5519009D01*
X21947095Y-5519009D02*
X21994714Y-5614247D01*
X21994714Y-5614247D02*
X21994714Y-5852342D01*
X21994714Y-5852342D02*
X21947095Y-5947580D01*
X21947095Y-5947580D02*
X21899476Y-5995200D01*
X21899476Y-5995200D02*
X21804238Y-6042819D01*
X21804238Y-6042819D02*
X21518524Y-6042819D01*
X21518524Y-6042819D02*
X21423286Y-5995200D01*
X21423286Y-5995200D02*
X21375667Y-5947580D01*
X8723333Y-17472819D02*
X8390000Y-16996628D01*
X8151905Y-17472819D02*
X8151905Y-16472819D01*
X8151905Y-16472819D02*
X8532857Y-16472819D01*
X8532857Y-16472819D02*
X8628095Y-16520438D01*
X8628095Y-16520438D02*
X8675714Y-16568057D01*
X8675714Y-16568057D02*
X8723333Y-16663295D01*
X8723333Y-16663295D02*
X8723333Y-16806152D01*
X8723333Y-16806152D02*
X8675714Y-16901390D01*
X8675714Y-16901390D02*
X8628095Y-16949009D01*
X8628095Y-16949009D02*
X8532857Y-16996628D01*
X8532857Y-16996628D02*
X8151905Y-16996628D01*
X9675714Y-17472819D02*
X9104286Y-17472819D01*
X9390000Y-17472819D02*
X9390000Y-16472819D01*
X9390000Y-16472819D02*
X9294762Y-16615676D01*
X9294762Y-16615676D02*
X9199524Y-16710914D01*
X9199524Y-16710914D02*
X9104286Y-16758533D01*
D11*
X11155000Y-16459252D02*
X11155000Y-15036748D01*
X12975000Y-16459252D02*
X12975000Y-15036748D01*
X26102000Y-12182000D02*
X26102000Y-4502000D01*
X28762000Y-4502000D02*
X26102000Y-4502000D01*
X28762000Y-12182000D02*
X26102000Y-12182000D01*
X28762000Y-12182000D02*
X28762000Y-4502000D01*
X28762000Y-13452000D02*
X28762000Y-14782000D01*
X28762000Y-14782000D02*
X27432000Y-14782000D01*
D10*
X12576000Y-7712000D02*
X16726000Y-7712000D01*
X12576000Y-12862000D02*
X16726000Y-12862000D01*
D11*
X11976000Y-7812000D02*
X11736000Y-7482000D01*
X12216000Y-7482000D01*
X11976000Y-7812000D01*
G36*
X11976000Y-7812000D02*
G01*
X11736000Y-7482000D01*
X12216000Y-7482000D01*
X11976000Y-7812000D01*
G37*
X702000Y-14986000D02*
X702000Y-2226000D01*
X3362000Y-2226000D02*
X702000Y-2226000D01*
X3362000Y-14986000D02*
X702000Y-14986000D01*
X3362000Y-14986000D02*
X3362000Y-2226000D01*
X3362000Y-16256000D02*
X3362000Y-17586000D01*
X3362000Y-17586000D02*
X2032000Y-17586000D01*
X18540000Y-1278000D02*
X18540000Y-3548000D01*
X18540000Y-3548000D02*
X22425000Y-3548000D01*
X22425000Y-1278000D02*
X18540000Y-1278000D01*
X18981000Y-15333000D02*
X19606000Y-15333000D01*
X19293500Y-15020500D02*
X19293500Y-15645500D01*
X19846000Y-15322437D02*
X19846000Y-15958000D01*
X19846000Y-15322437D02*
X20910437Y-14258000D01*
X19846000Y-18713563D02*
X19846000Y-18078000D01*
X19846000Y-18713563D02*
X20910437Y-19778000D01*
X20910437Y-14258000D02*
X25366000Y-14258000D01*
X20910437Y-19778000D02*
X25366000Y-19778000D01*
X25366000Y-14258000D02*
X25366000Y-15958000D01*
X25366000Y-19778000D02*
X25366000Y-18078000D01*
X18634064Y-4424000D02*
X17179936Y-4424000D01*
X18634064Y-6244000D02*
X17179936Y-6244000D01*
X7853000Y-13115936D02*
X7853000Y-14570064D01*
X9673000Y-13115936D02*
X9673000Y-14570064D01*
%LPC*%
D12*
X12065000Y-17223000D03*
X12065000Y-14273000D03*
D13*
X27432000Y-13452000D03*
D14*
X27432000Y-10912000D03*
X27432000Y-8372000D03*
X27432000Y-5832000D03*
D15*
X14651000Y-10287000D03*
D16*
X11776000Y-8382000D03*
X11776000Y-9652000D03*
X11776000Y-10922000D03*
X11776000Y-12192000D03*
X17526000Y-12192000D03*
X17526000Y-10922000D03*
X17526000Y-9652000D03*
X17526000Y-8382000D03*
D17*
X14001000Y-8987000D03*
X14001000Y-10287000D03*
X14001000Y-11587000D03*
X15301000Y-8987000D03*
X15301000Y-10287000D03*
X15301000Y-11587000D03*
D13*
X2032000Y-16256000D03*
D14*
X2032000Y-13716000D03*
X2032000Y-11176000D03*
X2032000Y-8636000D03*
X2032000Y-6096000D03*
X2032000Y-3556000D03*
D18*
X19425000Y-2413000D03*
X22225000Y-2413000D03*
D19*
X20406000Y-17018000D03*
X24806000Y-17018000D03*
D20*
X19369500Y-5334000D03*
X16444500Y-5334000D03*
D21*
X8763000Y-12380500D03*
X8763000Y-15305500D03*
%LPD*%
M02*
