G04 #@! TF.GenerationSoftware,KiCad,Pcbnew,8.0.5*
G04 #@! TF.CreationDate,2024-10-21T19:45:19-04:00*
G04 #@! TF.ProjectId,DRV8871_PCB,44525638-3837-4315-9f50-43422e6b6963,rev?*
G04 #@! TF.SameCoordinates,Original*
G04 #@! TF.FileFunction,Legend,Bot*
G04 #@! TF.FilePolarity,Positive*
%FSLAX46Y46*%
G04 Gerber Fmt 4.6, Leading zero omitted, Abs format (unit mm)*
G04 Created by KiCad (PCBNEW 8.0.5) date 2024-10-21 19:45:19*
%MOMM*%
%LPD*%
G01*
G04 APERTURE LIST*
G04 Aperture macros list*
%AMRoundRect*
0 Rectangle with rounded corners*
0 $1 Rounding radius*
0 $2 $3 $4 $5 $6 $7 $8 $9 X,Y pos of 4 corners*
0 Add a 4 corners polygon primitive as box body*
4,1,4,$2,$3,$4,$5,$6,$7,$8,$9,$2,$3,0*
0 Add four circle primitives for the rounded corners*
1,1,$1+$1,$2,$3*
1,1,$1+$1,$4,$5*
1,1,$1+$1,$6,$7*
1,1,$1+$1,$8,$9*
0 Add four rect primitives between the rounded corners*
20,1,$1+$1,$2,$3,$4,$5,0*
20,1,$1+$1,$4,$5,$6,$7,0*
20,1,$1+$1,$6,$7,$8,$9,0*
20,1,$1+$1,$8,$9,$2,$3,0*%
%AMFreePoly0*
4,1,6,1.000000,0.000000,0.500000,-0.750000,-0.500000,-0.750000,-0.500000,0.750000,0.500000,0.750000,1.000000,0.000000,1.000000,0.000000,$1*%
%AMFreePoly1*
4,1,6,0.500000,-0.750000,-0.650000,-0.750000,-0.150000,0.000000,-0.650000,0.750000,0.500000,0.750000,0.500000,-0.750000,0.500000,-0.750000,$1*%
G04 Aperture macros list end*
%ADD10C,0.150000*%
%ADD11C,0.120000*%
%ADD12RoundRect,0.250000X0.400000X0.450000X-0.400000X0.450000X-0.400000X-0.450000X0.400000X-0.450000X0*%
%ADD13R,1.700000X1.700000*%
%ADD14O,1.700000X1.700000*%
%ADD15C,0.770000*%
%ADD16FreePoly0,0.000000*%
%ADD17FreePoly1,0.000000*%
G04 APERTURE END LIST*
D10*
X27281094Y-2740819D02*
X27281094Y-1740819D01*
X27281094Y-1740819D02*
X27042999Y-1740819D01*
X27042999Y-1740819D02*
X26900142Y-1788438D01*
X26900142Y-1788438D02*
X26804904Y-1883676D01*
X26804904Y-1883676D02*
X26757285Y-1978914D01*
X26757285Y-1978914D02*
X26709666Y-2169390D01*
X26709666Y-2169390D02*
X26709666Y-2312247D01*
X26709666Y-2312247D02*
X26757285Y-2502723D01*
X26757285Y-2502723D02*
X26804904Y-2597961D01*
X26804904Y-2597961D02*
X26900142Y-2693200D01*
X26900142Y-2693200D02*
X27042999Y-2740819D01*
X27042999Y-2740819D02*
X27281094Y-2740819D01*
X25852523Y-2074152D02*
X25852523Y-2740819D01*
X26090618Y-1693200D02*
X26328713Y-2407485D01*
X26328713Y-2407485D02*
X25709666Y-2407485D01*
X27281094Y-16456819D02*
X27281094Y-15456819D01*
X27281094Y-15456819D02*
X27042999Y-15456819D01*
X27042999Y-15456819D02*
X26900142Y-15504438D01*
X26900142Y-15504438D02*
X26804904Y-15599676D01*
X26804904Y-15599676D02*
X26757285Y-15694914D01*
X26757285Y-15694914D02*
X26709666Y-15885390D01*
X26709666Y-15885390D02*
X26709666Y-16028247D01*
X26709666Y-16028247D02*
X26757285Y-16218723D01*
X26757285Y-16218723D02*
X26804904Y-16313961D01*
X26804904Y-16313961D02*
X26900142Y-16409200D01*
X26900142Y-16409200D02*
X27042999Y-16456819D01*
X27042999Y-16456819D02*
X27281094Y-16456819D01*
X26376332Y-15456819D02*
X25757285Y-15456819D01*
X25757285Y-15456819D02*
X26090618Y-15837771D01*
X26090618Y-15837771D02*
X25947761Y-15837771D01*
X25947761Y-15837771D02*
X25852523Y-15885390D01*
X25852523Y-15885390D02*
X25804904Y-15933009D01*
X25804904Y-15933009D02*
X25757285Y-16028247D01*
X25757285Y-16028247D02*
X25757285Y-16266342D01*
X25757285Y-16266342D02*
X25804904Y-16361580D01*
X25804904Y-16361580D02*
X25852523Y-16409200D01*
X25852523Y-16409200D02*
X25947761Y-16456819D01*
X25947761Y-16456819D02*
X26233475Y-16456819D01*
X26233475Y-16456819D02*
X26328713Y-16409200D01*
X26328713Y-16409200D02*
X26376332Y-16361580D01*
D11*
X25093000Y-3423000D02*
X25093000Y-1403000D01*
X21333000Y-1403000D02*
X25093000Y-1403000D01*
X21333000Y-3423000D02*
X25093000Y-3423000D01*
X25220000Y-17012000D02*
X25220000Y-14992000D01*
X21460000Y-14992000D02*
X25220000Y-14992000D01*
X21460000Y-17012000D02*
X25220000Y-17012000D01*
X7146000Y-7636000D02*
X9946000Y-7636000D01*
X7146000Y-9636000D02*
X7146000Y-7636000D01*
X9946000Y-7636000D02*
X9946000Y-9636000D01*
X9946000Y-9636000D02*
X7146000Y-9636000D01*
X7019000Y-10557000D02*
X9819000Y-10557000D01*
X7019000Y-12557000D02*
X7019000Y-10557000D01*
X9819000Y-10557000D02*
X9819000Y-12557000D01*
X9819000Y-12557000D02*
X7019000Y-12557000D01*
%LPC*%
D12*
X24183000Y-2413000D03*
X21283000Y-2413000D03*
X24310000Y-16002000D03*
X21410000Y-16002000D03*
D13*
X27432000Y-13452000D03*
D14*
X27432000Y-10912000D03*
X27432000Y-8372000D03*
X27432000Y-5832000D03*
D15*
X14001000Y-8987000D03*
X14001000Y-10287000D03*
X14001000Y-11587000D03*
X15301000Y-8987000D03*
X15301000Y-10287000D03*
X15301000Y-11587000D03*
D13*
X2032000Y-16256000D03*
D14*
X2032000Y-13716000D03*
X2032000Y-11176000D03*
X2032000Y-8636000D03*
X2032000Y-6096000D03*
X2032000Y-3556000D03*
D16*
X7821000Y-8636000D03*
D17*
X9271000Y-8636000D03*
D16*
X7694000Y-11557000D03*
D17*
X9144000Y-11557000D03*
%LPD*%
M02*
